<?xml version="1.0" encoding="utf-8"?>
<!-- Generator: Adobe Illustrator 21.1.0, SVG Export Plug-In . SVG Version: 6.00 Build 0)  -->
<svg version="1.1" id="Layer_1" xmlns="http://www.w3.org/2000/svg" xmlns:xlink="http://www.w3.org/1999/xlink" x="0px" y="0px"
	 viewBox="0 0 78 78" style="enable-background:new 0 0 78 78;" xml:space="preserve">
<style type="text/css">
	.st0{fill:#104667;}
</style>
<g>
	<path class="st0" d="M76.5,24C73.6,12,65.3,4.1,52.9,1.6c-2.7-0.5-4.3-0.7-7.2-0.8L43,0.7l-0.5,0.5l-0.4,0.4v16.7V35l0.4,0.5
		l0.4,0.5h16.5c11.1,0,16.7,0,17-0.1c0.2-0.1,0.6-0.3,0.7-0.5c0.3-0.3,0.3-0.5,0.3-1.6C77.7,31.3,77.2,27,76.5,24z"/>
	<path class="st0" d="M55.3,39.2h-12L43,39.5c-0.5,0.5-0.7,1-0.6,2c0.3,3.1-2,6.2-5.1,7.2c-1,0.3-2.6,0.3-3.6,0
		c-2.9-0.9-5.1-3.8-5.1-6.9c0-1.6,0.7-3.5,1.8-4.8c1.3-1.5,3-2.3,5-2.3c0.8,0,1.2-0.1,1.5-0.3c0.7-0.5,0.7,0.2,0.7-13.5
		c0-13.9,0-13.1-0.8-13.6c-0.3-0.1-1.3-0.2-3.5,0c-5.4,0.3-10.5,1.7-15,4C13.1,13.9,9,17.7,5.9,22.6c-1,1.6-2.5,4.7-3.1,6.5
		c-2.4,6.7-2.9,14.8-1.5,21.6c2,9.3,7.5,17.1,15.3,22c6.6,4.1,14.5,5.8,22.9,4.7c5.4-0.7,10.3-2.5,14.4-5.3c2-1.4,3.2-2.4,4.9-4.2
		c3.5-3.6,6-7.9,7.6-13c1.3-4,2-7.9,2.1-12.4c0.1-1.9,0.1-2.1-0.2-2.5C67.9,39.1,68.7,39.2,55.3,39.2z"/>
</g>
</svg>
