<?xml version="1.0" encoding="UTF-8" standalone="no"?>
<svg
   xmlns:dc="http://purl.org/dc/elements/1.1/"
   xmlns:cc="http://creativecommons.org/ns#"
   xmlns:rdf="http://www.w3.org/1999/02/22-rdf-syntax-ns#"
   xmlns:svg="http://www.w3.org/2000/svg"
   xmlns="http://www.w3.org/2000/svg"
   xmlns:sodipodi="http://sodipodi.sourceforge.net/DTD/sodipodi-0.dtd"
   xmlns:inkscape="http://www.inkscape.org/namespaces/inkscape"
   inkscape:version="1.0 (4035a4fb49, 2020-05-01)"
   sodipodi:docname="TransparentFood.svg"
   xml:space="preserve"
   style="enable-background:new 0 0 86 85;"
   viewBox="0 0 86 85"
   y="0px"
   x="0px"
   id="Layer_1"
   version="1.1"><metadata
   id="metadata1528"><rdf:RDF><cc:Work
       rdf:about=""><dc:format>image/svg+xml</dc:format><dc:type
         rdf:resource="http://purl.org/dc/dcmitype/StillImage" /><dc:title></dc:title></cc:Work></rdf:RDF></metadata><defs
   id="defs1526" /><sodipodi:namedview
   inkscape:current-layer="Layer_1"
   inkscape:window-maximized="1"
   inkscape:window-y="-8"
   inkscape:window-x="-8"
   inkscape:cy="38.47915"
   inkscape:cx="1.4083764"
   inkscape:zoom="3.2235294"
   showgrid="false"
   id="namedview1524"
   inkscape:window-height="715"
   inkscape:window-width="1366"
   inkscape:pageshadow="2"
   inkscape:pageopacity="0"
   guidetolerance="10"
   gridtolerance="10"
   objecttolerance="10"
   borderopacity="1"
   bordercolor="#666666"
   pagecolor="#ffffff" />
<style
   id="style1499"
   type="text/css">
	.st0{fill:#FFFFFF;stroke:#FFFFFF;stroke-miterlimit:10;}
	.st1{fill:#F6A230;}
	.st2{fill:#FFFF00;}
	.st3{fill:#D53349;}
	.st4{fill:#08AA6E;}
	.st5{fill:#53180F;}
</style>

<g
   id="g1521">
	<path
   id="path1503"
   d="M82,32.5c-0.8,6-13.2,6-37.9,6.1c-25.5,0-38.2,0.1-39.1-6.1C4,24.2,23.1,4,43.5,4S83.1,24.2,82,32.5z"
   class="st1" />
	<path
   id="path1505"
   d="M69.5,81H16.9C10.9,81,6,76.1,6,70.1l0,0c0-6,4.9-10.9,10.9-10.9h52.6c6,0,10.9,4.9,10.9,10.9l0,0   C80.4,76.1,75.5,81,69.5,81z"
   class="st1" />
	<polygon
   id="polygon1507"
   points="35.1,77 47.7,53 17.3,57.9  "
   class="st2" />
	<path
   id="path1509"
   d="M68.5,45.2c-2.7,0-5.1,0.8-6.9,2c-1.8-1.3-4.3-2-6.9-2s-5.1,0.8-6.9,2c-1.8-1.3-4.3-2-6.9-2   c-1.8,0-3.5,0.4-5,1c-1.5-0.6-3.2-1-5-1c-2.5,0-4.8,0.7-6.5,1.8c-1.8-1.1-4.1-1.8-6.5-1.8c-5.7,0-10.4,3.6-10.4,8s4.7,8,10.4,8   c2.5,0,4.8-0.7,6.5-1.8c1.8,1.1,4.1,1.8,6.5,1.8c1.8,0,3.5-0.4,5-1c1.5,0.6,3.2,1,5,1c2.7,0,5.1-0.8,6.9-2c1.8,1.3,4.3,2,6.9,2   s5.1-0.8,6.9-2c1.8,1.3,4.3,2,6.9,2c5.7,0,10.4-3.6,10.4-8C78.9,48.7,74.3,45.2,68.5,45.2z"
   class="st3" />
	<path
   id="path1511"
   d="M72.6,49.6c-3.4-3.1-6-3.3-7.7-3c-2.8,0.5-3.6,2.7-7.6,3.7c-1.4,0.3-3.5,0.8-6,0c-3.2-1.1-3.1-3.2-6-4.4   c-2.4-1-5-0.2-10.3,1.5c-5,1.6-4.6,2.2-6.5,2.2c-4.5,0-5.8-3.7-9.8-3.7c-1.6,0-4,0.7-6.8,3.8c-0.3,0-1.9,0-3.1-1.8   c-0.8-1.1-1.3-2.6-1.3-4.2l0,0c0-3.3,2-6,4.4-6h60.7c2.4,0,4.4,2.7,4.4,6l0,0C75.5,45.6,74,47.6,72.6,49.6z"
   class="st4" />
	<rect
   id="rect1513"
   height="0.6"
   width="1.5"
   class="st5"
   y="14.8"
   x="34.3" />
	<rect
   id="rect1515"
   height="0.6"
   width="1.5"
   class="st5"
   y="21.9"
   x="38.1" />
	<rect
   id="rect1517"
   height="0.6"
   width="1.5"
   class="st5"
   y="14.8"
   x="43.5" />
	<rect
   id="rect1519"
   height="0.6"
   width="1.5"
   class="st5"
   y="21"
   x="49.7" />
</g>
</svg>
