<?xml version="1.0" encoding="UTF-8" standalone="no"?>
<svg
   xmlns:dc="http://purl.org/dc/elements/1.1/"
   xmlns:cc="http://creativecommons.org/ns#"
   xmlns:rdf="http://www.w3.org/1999/02/22-rdf-syntax-ns#"
   xmlns:svg="http://www.w3.org/2000/svg"
   xmlns="http://www.w3.org/2000/svg"
   xmlns:sodipodi="http://sodipodi.sourceforge.net/DTD/sodipodi-0.dtd"
   xmlns:inkscape="http://www.inkscape.org/namespaces/inkscape"
   version="1.1"
   id="Layer_1"
   x="0px"
   y="0px"
   viewBox="0 0 73.668221 77.990494"
   xml:space="preserve"
   sodipodi:docname="TransparentOther.svg"
   width="73.668221"
   height="77.990494"
   inkscape:version="1.0 (4035a4fb49, 2020-05-01)"><metadata
   id="metadata4403"><rdf:RDF><cc:Work
       rdf:about=""><dc:format>image/svg+xml</dc:format><dc:type
         rdf:resource="http://purl.org/dc/dcmitype/StillImage" /><dc:title></dc:title></cc:Work></rdf:RDF></metadata><defs
   id="defs4401" /><sodipodi:namedview
   inkscape:document-rotation="0"
   pagecolor="#ffffff"
   bordercolor="#666666"
   borderopacity="1"
   objecttolerance="10"
   gridtolerance="10"
   guidetolerance="10"
   inkscape:pageopacity="0"
   inkscape:pageshadow="2"
   inkscape:window-width="1366"
   inkscape:window-height="715"
   id="namedview4399"
   showgrid="false"
   fit-margin-top="0"
   fit-margin-left="0"
   fit-margin-right="0"
   fit-margin-bottom="0"
   inkscape:zoom="2.3627714"
   inkscape:cx="55.907368"
   inkscape:cy="61.503317"
   inkscape:window-x="-8"
   inkscape:window-y="-8"
   inkscape:window-maximized="1"
   inkscape:current-layer="Layer_1" />
<style
   type="text/css"
   id="style4382">
	.st0{fill:#FFFFFF;stroke:#FFFFFF;stroke-miterlimit:10;}
	.st1{fill:#10466C;stroke:#10466C;stroke-miterlimit:10;}
	.st2{fill:#E6ECF0;stroke:#10466C;stroke-miterlimit:10;}
	.st3{fill:#10466C;}
</style>

<ellipse
   class="st1"
   cx="36.83411"
   cy="38.995247"
   id="circle4386"
   style="stroke-width:0.999998"
   rx="36.33411"
   ry="38.495247" />
<ellipse
   class="st2"
   cx="36.645363"
   cy="39.195225"
   rx="33.408508"
   ry="36.19553"
   id="ellipse4388"
   style="stroke-width:0.999998" />
<g
   id="g4394"
   transform="matrix(0.9437431,0,0,0.99987652,-4.6905866,-2.9995664)"
   style="stroke-width:1.02943">
	<path
   class="st3"
   d="m 43.5,68.5 c -2.2,0 -3.9,-1.7 -3.9,-3.9 -0.1,-2.3 1.7,-4.2 3.9,-4.3 h 0.2 c 2.2,0 3.9,1.7 3.9,3.9 0.1,2.3 -1.7,4.2 -3.9,4.3 z"
   id="path4390"
   style="stroke-width:1.02943" />
	<path
   class="st3"
   d="m 43.7,60.8 c 1.9,0 3.4,1.5 3.4,3.5 0.1,2 -1.5,3.7 -3.5,3.8 -0.1,0 -0.1,0 -0.2,0 -1.9,0 -3.4,-1.5 -3.4,-3.5 -0.1,-2 1.5,-3.7 3.5,-3.8 0.1,0 0.1,0 0.2,0 m 0,-1 c -0.1,0 -0.1,0 -0.2,0 -2.5,0.1 -4.5,2.3 -4.5,4.8 0.1,2.5 2,4.4 4.4,4.4 0.1,0 0.1,0 0.2,0 2.5,-0.1 4.5,-2.3 4.4,-4.8 0,-2.5 -1.9,-4.4 -4.3,-4.4 z"
   id="path4392"
   style="stroke-width:1.02943" />
</g>
<path
   class="st1"
   d="m 48.44215,18.397792 c -1.132492,-2.299716 -3.397475,-3.799531 -5.568084,-4.799407 -4.529967,-2.099741 -10.381174,-2.799654 -14.911141,-0.299963 -5.568085,3.099617 -6.983699,9.898777 -7.172448,16.198 h 3.869347 c 0.09437,-4.499445 0.849369,-9.598815 4.529967,-12.098506 3.586223,-2.399704 9.154308,-1.499815 12.740532,0.39995 1.793111,0.899889 3.114352,2.199729 3.586223,4.399457 0.471872,2.399704 0.188749,4.999383 -0.566246,7.299099 -0.566245,1.999753 -1.509989,4.399456 -3.397475,5.299345 -2.170609,1.099864 -5.001838,0.399951 -6.511827,2.899642 -1.132492,1.799778 -1.038118,4.599432 -0.943743,6.699173 0,2.399703 0.283123,4.799407 0.283123,7.199111 0,2.699666 3.869346,2.699666 3.869346,0 0,-2.399704 -0.283122,-4.799408 -0.283122,-7.199111 0,-1.199852 -0.09438,-2.399704 0.188748,-3.599556 0.283123,-1.399827 1.32124,-1.199852 2.548107,-1.499815 5.756832,-1.099864 8.210564,-6.899148 8.871185,-12.698431 0.188748,-2.699667 0.09437,-5.699297 -1.132492,-8.198988 z"
   id="path4396"
   style="stroke-width:0.999998" />
</svg>
