<?xml version="1.0" encoding="UTF-8" standalone="no"?>
<svg
   xmlns:dc="http://purl.org/dc/elements/1.1/"
   xmlns:cc="http://creativecommons.org/ns#"
   xmlns:rdf="http://www.w3.org/1999/02/22-rdf-syntax-ns#"
   xmlns:svg="http://www.w3.org/2000/svg"
   xmlns="http://www.w3.org/2000/svg"
   xmlns:sodipodi="http://sodipodi.sourceforge.net/DTD/sodipodi-0.dtd"
   xmlns:inkscape="http://www.inkscape.org/namespaces/inkscape"
   inkscape:version="1.0 (4035a4fb49, 2020-05-01)"
   sodipodi:docname="TransparentParties.svg"
   xml:space="preserve"
   style="enable-background:new 0 0 82 87.5;"
   viewBox="0 0 82 87.5"
   y="0px"
   x="0px"
   id="Layer_1"
   version="1.1"><metadata
   id="metadata892"><rdf:RDF><cc:Work
       rdf:about=""><dc:format>image/svg+xml</dc:format><dc:type
         rdf:resource="http://purl.org/dc/dcmitype/StillImage" /><dc:title></dc:title></cc:Work></rdf:RDF></metadata><defs
   id="defs890" /><sodipodi:namedview
   inkscape:current-layer="Layer_1"
   inkscape:window-maximized="1"
   inkscape:window-y="-8"
   inkscape:window-x="-8"
   inkscape:cy="60.124997"
   inkscape:cx="-56.811056"
   inkscape:zoom="1.54"
   showgrid="false"
   id="namedview888"
   inkscape:window-height="715"
   inkscape:window-width="1366"
   inkscape:pageshadow="2"
   inkscape:pageopacity="0"
   guidetolerance="10"
   gridtolerance="10"
   objecttolerance="10"
   borderopacity="1"
   bordercolor="#666666"
   pagecolor="#ffffff" />
<style
   id="style833"
   type="text/css">
	.st0{fill:#FFFFFF;stroke:#FFFFFF;stroke-miterlimit:10;}
	.st1{fill:#CD1D25;}
	.st2{fill:#960000;}
	.st3{fill:#FFFFFF;stroke:#000000;stroke-miterlimit:10;}
	.st4{stroke:#000000;stroke-miterlimit:10;}
</style>

<g
   transform="translate(1.5400377e-7,0.6493506)"
   id="g885">
	<g
   id="g841">
		<polygon
   id="polygon837"
   points="5.6,12.7 76,13.1 67.3,65.7 12.7,65.7 "
   class="st1" />
		<path
   id="path839"
   d="m 6.1,13.2 69.3,0.3 -2.3,13.6 -6.3,38 H 13.1 L 10.2,43.6 6.1,13.2 M 5,12.2 c 2.4,18 4.8,36 7.3,53.9 18.5,0 37,0 55.5,0 3,-17.9 5.9,-35.7 8.9,-53.6 -24,0 -47.8,-0.2 -71.7,-0.3 z" />
	</g>
	<g
   id="g847">
		<path
   id="path843"
   d="M 15.7,81.2 C 15.6,80.8 15.3,80.3 15,80 v -0.4 c 0,-0.4 -0.1,-0.8 -0.4,-1.1 v -0.3 c 0,-0.4 -0.1,-0.7 -0.3,-1 L 12.8,65.8 67.3,66 64.8,78.7 c -0.1,0.2 -0.1,0.4 -0.1,0.7 -0.1,0.3 -0.3,0.6 -0.4,0.9 z"
   class="st1" />
		<path
   id="path845"
   d="m 13.3,66.3 53.3,0.2 -1.1,5.7 -1.3,6.3 c -0.1,0.2 -0.1,0.5 -0.2,0.7 -0.1,0.2 -0.1,0.3 -0.2,0.5 l -18,0.4 -29.8,0.6 c -0.1,-0.3 -0.3,-0.6 -0.6,-0.9 v -0.2 c 0,-0.4 -0.1,-0.9 -0.4,-1.3 0,-0.1 0,-0.1 0,-0.2 0,-0.4 -0.1,-0.8 -0.3,-1.2 l -1.2,-8.6 -0.2,-2 m -1.2,-1 c 0.5,4 1.1,8 1.6,12.1 0.2,0.2 0.3,0.5 0.3,0.9 0,0.2 0,0.3 0,0.5 0.2,0.3 0.4,0.6 0.4,0.9 v 0.7 h 0.1 c 0.4,0.3 0.7,0.8 0.7,1.3 v 0.1 c 16.4,-0.3 32.9,-0.7 49.3,-1 0.1,-0.4 0.3,-0.8 0.5,-1.2 0,-0.2 0.1,-0.5 0.1,-0.7 C 66,74.5 66.8,70 67.7,65.6 49.2,65.4 30.7,65.3 12.1,65.3 Z" />
	</g>
	<g
   id="g853">
		<path
   id="path849"
   d="m 16.2,85 -0.8,-3.1 c 0,-0.1 0,-0.2 0,-0.3 v -0.3 c 0,-0.4 -0.2,-0.9 -0.5,-1.3 v 0 h 49.4 c -0.4,1.1 -0.7,2.2 -0.7,3.4 v 0 l -0.5,1.7 z"
   class="st1" />
		<path
   id="path851"
   d="m 63.6,80.5 c -0.3,0.9 -0.4,1.8 -0.5,2.8 l -0.4,1.2 H 16.6 l -0.2,-1 -0.4,-1.7 c 0,-0.1 0,-0.2 0,-0.3 v -0.3 c 0,-0.3 -0.1,-0.5 -0.1,-0.8 H 63.6 M 65,79.5 H 14.3 c 0.1,0.3 0.1,0.5 0.2,0.8 0.3,0.3 0.5,0.7 0.5,1 v 0.3 c 0,0.1 0,0.2 0,0.3 0.3,1.2 0.6,2.4 0.9,3.6 h 47.6 c 0.2,-0.7 0.5,-1.4 0.7,-2.1 0,0 0,0 0,-0.1 -0.1,-1.3 0.2,-2.6 0.8,-3.8 z" />
	</g>
	<g
   id="g859">
		<rect
   id="rect855"
   height="0.80000001"
   width="54.400002"
   class="st1"
   y="65.800003"
   x="12.6" />
		<polygon
   id="polygon857"
   points="12.1,65.3 12.1,67 67.5,67 67.5,65.3 "
   class="st2" />
	</g>
	<g
   id="g865">
		<rect
   id="rect861"
   height="0.80000001"
   width="48"
   class="st1"
   y="79.599998"
   x="15.6" />
		<path
   id="path863"
   d="m 64.1,79.1 h -49 v 1.8 h 49 c 0,-0.1 0.1,-0.2 0.1,-0.3 z"
   class="st2" />
	</g>
	<g
   id="g871">
		<rect
   id="rect867"
   height="3.5999999"
   width="66.199997"
   class="st1"
   y="22.1"
   x="7.6999998" />
		<path
   id="path869"
   d="m 73.4,22.6 v 2.6 H 8.2 v -2.6 h 65.2 m 1,-1 H 7.2 v 4.6 h 67.2 z"
   class="st2" />
	</g>
	<g
   id="g877">
		<rect
   id="rect873"
   height="0.80000001"
   width="68.599998"
   class="st1"
   y="17.5"
   x="6.1999998" />
		<polygon
   id="polygon875"
   points="5.7,17 5.7,18.8 75.4,18.8 75.4,17 "
   class="st2" />
	</g>
	<g
   id="g883">
		<path
   id="path879"
   d="M 4.4,12.8 C 3.5,12.8 2.8,10.9 2.8,8.8 2.8,6.7 3.5,5 4.4,5 h 72.7 c 0.9,0 1.6,1.7 1.6,3.8 0,2.1 -0.7,3.8 -1.6,3.8 H 4.4 Z"
   class="st3" />
		<path
   id="path881"
   d="m 77.2,6.2 c 0.6,0 1.1,1.2 1.1,2.6 0,1.4 -0.5,2.6 -1.1,2.6 H 4.4 C 3.8,11.6 3.3,10.4 3.3,8.8 3.3,7.4 3.8,6.2 4.4,6.2 h 72.8 m 0,-2.4 H 4.4 c -1.1,0 -2.1,2.4 -2.1,5 0,2.9 1,5 2.1,5 h 72.7 c 1.2,0 2.1,-2.4 2.1,-5 0.1,-2.6 -0.9,-5 -2,-5 z"
   class="st4" />
	</g>
</g>
</svg>
