<?xml version="1.0" encoding="utf-8"?>
<!-- Generator: Adobe Illustrator 21.1.0, SVG Export Plug-In . SVG Version: 6.00 Build 0)  -->
<svg version="1.1" id="Layer_1" xmlns="http://www.w3.org/2000/svg" xmlns:xlink="http://www.w3.org/1999/xlink" x="0px" y="0px"
	 viewBox="0 0 129 102.7" style="enable-background:new 0 0 129 102.7;" xml:space="preserve">
<style type="text/css">
	.st0{fill:#FFFFFF;stroke:#FFFFFF;stroke-miterlimit:10;}
	.st1{fill:#10466C;}
</style>
<rect x="-8" y="-4" class="st0" width="145" height="112"/>
<g>
	<path d="M77.9,72.2c-12.2,0-14.5-0.3-15.2-2.2c-0.7-1.6-0.4-4.1,0.6-7c3-8,11.6-18.2,22.4-22.1l1.1-0.4l-1-0.5c-5-2.8-8-7.5-8-12.9
		c0-8.3,7.5-15.1,16.8-15.1s16.8,6.7,16.8,15.1c0,5.3-3,10.2-8.1,12.9l-1,0.5l1.1,0.4c10.8,3.9,19.7,14.4,22.7,22.3
		c1.1,2.9,1.3,5.3,0.6,6.9c-0.8,1.9-3,2.2-16.6,2.2h-5.3c-2.4,0-4.9,0-7.8,0h-2.2c-3.7,0-7,0-9.8,0C82.1,72.2,79.8,72.2,77.9,72.2z"
		/>
	<path d="M94.4,12.3c9,0,16.4,6.5,16.4,14.6c0,5.1-2.9,9.8-7.8,12.5l-2,1.1l2.1,0.8c10.7,3.8,19.5,14.3,22.4,22
		c1.1,2.8,1.2,5.1,0.7,6.5c-0.7,1.6-3.2,1.9-16.2,1.9c-1.6,0-3.3,0-5.3,0c-2.4,0-4.9,0-7.8,0h-2.2c-3.7,0-7,0-9.8,0
		c-2.6,0-4.8,0-6.9,0c-11.8,0-14.1-0.3-14.9-2c-0.6-1.4-0.4-3.8,0.6-6.6c2.9-7.9,11.5-18,22.1-21.8l2.1-0.8l-2-1.1
		c-4.8-2.7-7.8-7.3-7.8-12.5C78.1,18.8,85.4,12.3,94.4,12.3 M94.4,11.3c-9.5,0-17.3,6.9-17.3,15.6c0,5.6,3.3,10.6,8.3,13.4
		c-15.2,5.5-26.1,23.5-23.3,30c1,2.2,3.3,2.5,15.7,2.5c4.2,0,9.7,0,16.7,0c0.7,0,1.5,0,2.2,0c5.3,0,9.6,0,13.2,0
		c13.6,0,16-0.2,17-2.5c2.7-6.3-8.3-24.3-23.5-29.9c5-2.7,8.3-7.7,8.3-13.4C111.7,18.3,103.9,11.3,94.4,11.3L94.4,11.3z"/>
</g>
<g>
	<g>
		<path d="M18.6,61.9c-12.2,0-14.5-0.3-15.2-2.2c-0.7-1.6-0.4-4.1,0.6-7c3-8,11.6-18.2,22.4-22.1l1.1-0.4l-1-0.5
			c-5-2.8-8-7.5-8-12.9c0-8.3,7.5-15.1,16.8-15.1S52,8.4,52,16.8c0,5.3-3,10.2-8.1,12.9l-1,0.5l1.1,0.4C54.8,34.5,63.7,45,66.7,52.9
			c1.1,2.9,1.3,5.3,0.6,6.9c-0.8,1.9-3,2.2-16.6,2.2h-5.3c-2.4,0-4.9,0-7.8,0h-2.2c-3.7,0-7,0-9.8,0C22.8,61.9,20.5,61.9,18.6,61.9z
			"/>
		<path d="M35,2c9,0,16.4,6.5,16.4,14.6c0,5.1-2.9,9.8-7.8,12.5l-2,1.1l2.1,0.8c10.7,3.8,19.5,14.3,22.4,22c1.1,2.8,1.2,5.1,0.7,6.5
			c-0.7,1.6-3.2,1.9-16.2,1.9c-1.6,0-3.3,0-5.3,0c-2.4,0-4.9,0-7.8,0h-2.2c-3.7,0-7,0-9.8,0c-2.6,0-4.8,0-6.9,0
			c-11.8,0-14.1-0.3-14.9-2C3,58,3.2,55.6,4.3,52.8c2.9-7.9,11.5-18,22.1-21.8l2.1-0.8l-2-1.1c-4.8-2.7-7.8-7.3-7.8-12.5
			C18.7,8.5,26,2,35,2 M35,1c-9.5,0-17.3,6.9-17.3,15.6c0,5.6,3.3,10.6,8.3,13.4C10.9,35.5,0,53.5,2.8,59.9c1,2.2,3.3,2.5,15.7,2.5
			c4.2,0,9.7,0,16.7,0c0.7,0,1.5,0,2.2,0c5.3,0,9.6,0,13.2,0c13.6,0,16-0.2,17-2.5c2.7-6.3-8.3-24.3-23.5-29.9
			c5-2.7,8.3-7.7,8.3-13.4C52.3,8,44.6,1,35,1L35,1z"/>
	</g>
	<g>
		<path class="st1" d="M20.3,59.5c-10.8,0-12.8-0.4-13.5-2.1c-0.6-1.5-0.4-3.8,0.5-6.5c2.7-7.4,10.3-16.7,19.9-20.4l0.9-0.4
			l-0.9-0.5c-4.5-2.6-7.1-6.9-7.1-11.8c0-7.7,6.7-13.9,15-13.9s15,6.2,15,13.9c0,4.9-2.7,9.3-7.2,11.8L42,30.1l0.9,0.4
			c9.4,3.6,17.4,13.2,20,20.5c0.9,2.7,1.2,4.9,0.5,6.4c-0.7,1.8-2.7,2-14.7,2H44c-2.1,0-4.4,0-7,0h-2c-3.3,0-6.2,0-8.7,0
			C24.2,59.5,22.1,59.5,20.3,59.5z"/>
		<path d="M35.1,4.3c8,0,14.6,6,14.6,13.4c0,4.7-2.6,9-7,11.5l-1.8,1l1.9,0.7c9.4,3.5,17.3,13,19.9,20.3c0.9,2.6,1.1,4.7,0.6,6
			c-0.6,1.5-2.8,1.8-14.4,1.8c-1.4,0-3,0-4.7,0c-2.1,0-4.4,0-7,0h-2c-3.3,0-6.2,0-8.7,0c-2.3,0-4.3,0-6.1,0
			C9.9,59,7.9,58.7,7.2,57.2c-0.5-1.3-0.4-3.5,0.5-6.1c2.6-7.3,10.1-16.6,19.6-20.2l1.9-0.7l-1.8-1c-4.3-2.5-6.9-6.8-6.9-11.5
			C20.5,10.3,27,4.3,35.1,4.3 M35.1,3.4c-8.5,0-15.3,6.4-15.3,14.3c0,5.2,3,9.7,7.4,12.3C13.6,35.1,3.9,51.7,6.4,57.6
			c0.9,2,3,2.3,13.9,2.3c3.8,0,8.6,0,14.8,0c0.6,0,1.3,0,2,0c4.7,0,8.5,0,11.7,0c12.1,0,14.3-0.2,15.1-2.3
			c2.4-5.8-7.4-22.4-20.9-27.5c4.5-2.5,7.4-7.1,7.4-12.3C50.3,9.9,43.5,3.4,35.1,3.4L35.1,3.4z"/>
	</g>
</g>
<g>
	<path class="st1" d="M79.3,69.2c-10.8,0-12.8-0.3-13.5-2c-0.6-1.5-0.4-3.8,0.5-6.5C69,53.3,76.6,44,86.2,40.3l0.9-0.4l-0.9-0.5
		c-4.5-2.6-7.1-6.9-7.1-11.8c0-7.7,6.7-13.9,15-13.9c8.2,0,15,6.2,15,13.9c0,4.9-2.7,9.3-7.2,11.8L101,40l0.9,0.4
		c9.6,3.6,17.5,13.2,20.1,20.5c0.9,2.7,1.2,4.9,0.5,6.4c-0.7,1.8-2.7,2-14.8,2H103c-2.1,0-4.4,0-7,0h-2c-3.3,0-6.2,0-8.7,0
		C83.1,69.2,81.1,69.2,79.3,69.2z"/>
	<path d="M94,14.1c8,0,14.6,6,14.6,13.4c0,4.7-2.6,9-7,11.5l-1.8,1l1.9,0.7c9.5,3.5,17.3,13.1,19.9,20.3c0.9,2.6,1.1,4.7,0.6,6
		c-0.6,1.5-2.8,1.8-14.4,1.8c-1.4,0-3,0-4.7,0c-2.1,0-4.4,0-7,0h-1.9c-3.3,0-6.2,0-8.7,0c-2.3,0-4.3,0-6.1,0
		c-10.5,0-12.5-0.3-13.2-1.9c-0.5-1.3-0.4-3.5,0.5-6.1c2.6-7.3,10.2-16.6,19.7-20.1l1.9-0.7l-1.8-1c-4.3-2.5-6.9-6.8-6.9-11.5
		C79.4,20.1,85.9,14.1,94,14.1 M94,13.2c-8.5,0-15.3,6.4-15.3,14.3c0,5.2,3,9.7,7.4,12.3c-13.5,5.1-23.2,21.6-20.7,27.6
		c0.9,2,3,2.3,13.9,2.3c3.8,0,8.6,0,14.8,0c0.6,0,1.3,0,1.9,0c4.7,0,8.5,0,11.7,0c12.1,0,14.3-0.2,15.1-2.3
		c2.4-5.8-7.4-22.4-20.9-27.5c4.5-2.5,7.4-7.1,7.4-12.3C109.3,19.6,102.5,13.2,94,13.2L94,13.2z"/>
</g>
<g>
	<path d="M35.4,100.8c-12.2,0-14.5-0.3-15.2-2.2c-0.7-1.6-0.4-4.1,0.6-7c3-8,11.6-18.2,22.4-22.1l1.1-0.4l-1-0.5
		c-5-2.8-8-7.5-8-12.9c0-8.3,7.5-15.1,16.8-15.1s16.8,6.7,16.8,15.1c0,5.3-3,10.2-8.1,12.9l-1,0.5l1.1,0.4
		c10.8,3.9,19.7,14.4,22.7,22.3c1.1,2.9,1.3,5.3,0.6,6.9c-0.8,1.9-3,2.2-16.6,2.2h-5.3c-2.4,0-4.9,0-7.8,0h-2.2c-3.7,0-7,0-9.8,0
		C39.6,100.8,37.3,100.8,35.4,100.8z"/>
	<path d="M51.9,40.9c9,0,16.4,6.5,16.4,14.6c0,5.1-2.9,9.8-7.8,12.5l-2,1.1l2.1,0.8c10.7,3.8,19.5,14.3,22.4,22
		c1.1,2.8,1.2,5.1,0.7,6.5c-0.7,1.6-3.2,1.9-16.2,1.9c-1.6,0-3.3,0-5.3,0c-2.4,0-4.9,0-7.8,0H52c-3.7,0-7,0-9.8,0
		c-2.6,0-4.8,0-6.9,0c-11.8,0-14.1-0.3-14.9-2c-0.6-1.4-0.4-3.8,0.6-6.6c2.9-7.9,11.5-18,22.1-21.8l2.1-0.8l-2-1.1
		c-4.8-2.7-7.8-7.3-7.8-12.5C35.6,47.4,42.9,40.9,51.9,40.9 M51.9,39.9c-9.5,0-17.3,6.9-17.3,15.6c0,5.6,3.3,10.6,8.3,13.4
		c-15.2,5.5-26.1,23.5-23.3,30c1,2.2,3.3,2.5,15.7,2.5c4.2,0,9.7,0,16.7,0c0.7,0,1.5,0,2.2,0c5.3,0,9.6,0,13.2,0
		c13.6,0,16-0.2,17-2.5c2.7-6.3-8.3-24.3-23.5-29.9c5-2.7,8.3-7.7,8.3-13.4C69.1,46.9,61.4,39.9,51.9,39.9L51.9,39.9z"/>
</g>
<g>
	<path class="st1" d="M37,98.2c-10.8,0-12.8-0.3-13.5-2c-0.6-1.5-0.4-3.8,0.5-6.5c2.7-7.4,10.3-16.7,19.9-20.4l0.9-0.4l-0.9-0.5
		c-4.5-2.6-7.1-6.9-7.1-11.8c0-7.7,6.7-13.9,15-13.9s15,6.2,15,13.9c0,4.9-2.7,9.3-7.2,11.8l-0.9,0.5l0.9,0.4
		c9.6,3.6,17.5,13.2,20.1,20.5c0.9,2.7,1.2,4.9,0.5,6.4c-0.7,1.8-2.7,2-14.7,2h-4.7c-2.1,0-4.4,0-7,0h-2c-3.3,0-6.2,0-8.7,0
		C40.7,98.2,38.7,98.2,37,98.2z"/>
	<path d="M51.6,43c8,0,14.6,6,14.6,13.4c0,4.7-2.6,9-7,11.5l-1.8,1l1.9,0.7c9.5,3.5,17.3,13.1,19.9,20.3c0.9,2.6,1.1,4.7,0.6,6
		c-0.6,1.5-2.8,1.8-14.4,1.8c-1.4,0-3,0-4.7,0c-2.1,0-4.4,0-7,0h-2c-3.3,0-6.2,0-8.7,0c-2.3,0-4.3,0-6.1,0
		c-10.5,0-12.5-0.3-13.2-1.9c-0.5-1.3-0.4-3.5,0.5-6.1c2.6-7.3,10.2-16.6,19.7-20.1l1.9-0.7l-1.8-1c-4.3-2.5-6.9-6.8-6.9-11.5
		C37.1,49,43.6,43,51.6,43 M51.6,42.1c-8.5,0-15.3,6.4-15.3,14.3c0,5.2,3,9.7,7.4,12.3C30.2,73.8,20.4,90.4,23,96.3
		c0.9,2,3,2.3,13.9,2.3c3.8,0,8.6,0,14.8,0c0.6,0,1.3,0,2,0c4.7,0,8.5,0,11.7,0c12.1,0,14.3-0.2,15.1-2.3
		c2.4-5.8-7.4-22.4-20.9-27.5c4.5-2.5,7.4-7.1,7.4-12.3C67,48.6,60.1,42.1,51.6,42.1L51.6,42.1z"/>
</g>
</svg>
