<?xml version="1.0" encoding="UTF-8" standalone="no"?>
<svg
   xmlns:dc="http://purl.org/dc/elements/1.1/"
   xmlns:cc="http://creativecommons.org/ns#"
   xmlns:rdf="http://www.w3.org/1999/02/22-rdf-syntax-ns#"
   xmlns:svg="http://www.w3.org/2000/svg"
   xmlns="http://www.w3.org/2000/svg"
   xmlns:sodipodi="http://sodipodi.sourceforge.net/DTD/sodipodi-0.dtd"
   xmlns:inkscape="http://www.inkscape.org/namespaces/inkscape"
   version="1.1"
   id="Layer_1"
   x="0px"
   y="0px"
   viewBox="0 0 81.300003 79.578697"
   xml:space="preserve"
   sodipodi:docname="CommentFinal.svg"
   width="81.300003"
   height="79.578697"
   inkscape:version="1.0 (4035a4fb49, 2020-05-01)"><metadata
   id="metadata892"><rdf:RDF><cc:Work
       rdf:about=""><dc:format>image/svg+xml</dc:format><dc:type
         rdf:resource="http://purl.org/dc/dcmitype/StillImage" /><dc:title /></cc:Work></rdf:RDF></metadata><defs
   id="defs890" /><sodipodi:namedview
   inkscape:document-rotation="0"
   pagecolor="#ffffff"
   bordercolor="#666666"
   borderopacity="1"
   objecttolerance="10"
   gridtolerance="10"
   guidetolerance="10"
   inkscape:pageopacity="0"
   inkscape:pageshadow="2"
   inkscape:window-width="1366"
   inkscape:window-height="715"
   id="namedview888"
   showgrid="false"
   fit-margin-top="0"
   fit-margin-left="0"
   fit-margin-right="0"
   fit-margin-bottom="0"
   inkscape:zoom="4.4039157"
   inkscape:cx="66.409109"
   inkscape:cy="29.98829"
   inkscape:window-x="-8"
   inkscape:window-y="-8"
   inkscape:window-maximized="1"
   inkscape:current-layer="g885" />
<style
   type="text/css"
   id="style857">
	.st0{fill:#E6ECF0;stroke:#E6ECF0;stroke-miterlimit:10;}
	.st1{fill:#10466C;stroke:#10466C;stroke-miterlimit:10;}
	.st2{fill:#E6ECF0;stroke:#10466C;stroke-miterlimit:10;}
	.st3{fill:#10466C;stroke:#333366;stroke-miterlimit:10;}
</style>

<g
   id="g885"
   transform="translate(-2.65,-2.15)">
	<g
   id="g865"
   style="stroke-width:0.3;stroke-miterlimit:10;stroke-dasharray:none">
		<path
   class="st1"
   d="M 13.1,62 H 8 C 5.1,62 2.8,58.8 2.8,54.8 V 9.5 C 2.8,5.5 5.1,2.3 8,2.3 h 70.6 c 2.9,0 5.2,3.2 5.2,7.2 v 45.3 c 0,4 -2.3,7.2 -5.2,7.2 H 35.3 L 14.1,81.3 Z"
   id="path861"
   style="stroke-width:0.3;stroke-miterlimit:10;stroke-dasharray:none" />
		<path
   class="st1"
   d="m 76.7,3.7 c 2.5,0 4.5,3 4.5,6.5 v 44.2 c 0,3.6 -2.1,6.5 -4.5,6.5 H 35.1 34.7 L 34.4,61.2 15.1,79.2 14.2,63.7 14,61.9 13.9,61 H 13 8.6 C 6.1,61 4,58 4,54.4 V 10.2 C 4,6.6 6.1,3.7 8.5,3.7 h 68.2 m 0,-1 H 8.6 C 5.5,2.7 3,6 3,10.2 V 54.4 C 3,58.6 5.5,62 8.6,62 H 13 c 0.3,6.4 0.7,13 1,19.4 L 35,62 h 41.5 c 3.1,0 5.6,-3.4 5.6,-7.6 V 10.2 C 82.3,6 79.8,2.7 76.7,2.7 Z"
   id="path863"
   style="stroke-width:0.3;stroke-miterlimit:10;stroke-dasharray:none" />
	</g>
	<g
   id="g871"
   transform="translate(0.14963504,-0.8978102)"
   style="fill:#000000;fill-opacity:1">
		<path
   class="st2"
   d="M 16.5,56.9 H 12 C 9.5,56.9 7.5,54.2 7.5,50.8 V 12.2 c 0,-3.4 2,-6.1 4.5,-6.1 h 61.4 c 2.5,0 4.5,2.7 4.5,6.1 v 38.6 c 0,3.4 -2,6.1 -4.5,6.1 H 35.8 L 17.4,73.3 Z"
   id="path867"
   style="fill:#ffffff;fill-opacity:1;stroke:none" />
		
	</g>
	<g
   style="stroke-width:3;stroke-miterlimit:4;stroke-dasharray:none"
   id="g875">
		<ellipse
   style="stroke-width:3;stroke-miterlimit:4;stroke-dasharray:none"
   class="st1"
   cx="61.200001"
   cy="28.700001"
   rx="3.4000001"
   ry="4.4000001"
   id="ellipse873" />
	</g>
	<g
   style="stroke-width:3;stroke-miterlimit:4;stroke-dasharray:none"
   id="g879">
		<ellipse
   class="st3"
   cx="42.400002"
   cy="28.700001"
   rx="3.4000001"
   ry="4.4000001"
   id="ellipse877"
   style="stroke:#10466c;stroke-opacity:1;stroke-width:3;stroke-miterlimit:4;stroke-dasharray:none" />
	</g>
	<g
   style="stroke-width:3;stroke-miterlimit:4;stroke-dasharray:none"
   id="g883">
		<ellipse
   style="stroke-width:3;stroke-miterlimit:4;stroke-dasharray:none"
   class="st1"
   cx="24.200001"
   cy="28.700001"
   rx="3.4000001"
   ry="4.4000001"
   id="ellipse881" />
	</g>
</g>
</svg>
