<?xml version="1.0" encoding="utf-8"?>
<!-- Generator: Adobe Illustrator 21.1.0, SVG Export Plug-In . SVG Version: 6.00 Build 0)  -->
<svg version="1.1" id="Layer_1" xmlns="http://www.w3.org/2000/svg" xmlns:xlink="http://www.w3.org/1999/xlink" x="0px" y="0px"
	 viewBox="0 0 87 82" style="enable-background:new 0 0 87 82;" xml:space="preserve">
<style type="text/css">
	.st0{fill:#FFFFFF;stroke:#FFFFFF;stroke-miterlimit:10;}
	.st1{fill:#10466C;stroke:#10466C;stroke-miterlimit:10;}
	.st2{fill:#E6ECF0;stroke:#10466C;stroke-miterlimit:10;}
	.st3{fill:#10466C;}
</style>
<rect x="-6" y="-4" class="st0" width="98" height="91"/>
<circle class="st1" cx="44" cy="42" r="38.5"/>
<ellipse class="st2" cx="43.8" cy="42.2" rx="35.4" ry="36.2"/>
<g>
	<path class="st3" d="M43.5,68.5c-2.2,0-3.9-1.7-3.9-3.9c-0.1-2.3,1.7-4.2,3.9-4.3h0.2c2.2,0,3.9,1.7,3.9,3.9
		c0.1,2.3-1.7,4.2-3.9,4.3H43.5z"/>
	<path class="st3" d="M43.7,60.8c1.9,0,3.4,1.5,3.4,3.5c0.1,2-1.5,3.7-3.5,3.8c-0.1,0-0.1,0-0.2,0c-1.9,0-3.4-1.5-3.4-3.5
		c-0.1-2,1.5-3.7,3.5-3.8C43.6,60.8,43.6,60.8,43.7,60.8 M43.7,59.8c-0.1,0-0.1,0-0.2,0C41,59.9,39,62.1,39,64.6
		c0.1,2.5,2,4.4,4.4,4.4c0.1,0,0.1,0,0.2,0c2.5-0.1,4.5-2.3,4.4-4.8C48,61.7,46.1,59.8,43.7,59.8L43.7,59.8z"/>
</g>
<path class="st1" d="M56.3,21.4c-1.2-2.3-3.6-3.8-5.9-4.8c-4.8-2.1-11-2.8-15.8-0.3c-5.9,3.1-7.4,9.9-7.6,16.2h4.1
	c0.1-4.5,0.9-9.6,4.8-12.1c3.8-2.4,9.7-1.5,13.5,0.4c1.9,0.9,3.3,2.2,3.8,4.4c0.5,2.4,0.2,5-0.6,7.3c-0.6,2-1.6,4.4-3.6,5.3
	c-2.3,1.1-5.3,0.4-6.9,2.9c-1.2,1.8-1.1,4.6-1,6.7c0,2.4,0.3,4.8,0.3,7.2c0,2.7,4.1,2.7,4.1,0c0-2.4-0.3-4.8-0.3-7.2
	c0-1.2-0.1-2.4,0.2-3.6c0.3-1.4,1.4-1.2,2.7-1.5c6.1-1.1,8.7-6.9,9.4-12.7C57.7,26.9,57.6,23.9,56.3,21.4z"/>
</svg>
