<?xml version="1.0" encoding="UTF-8" standalone="no"?>
<svg
   xmlns:dc="http://purl.org/dc/elements/1.1/"
   xmlns:cc="http://creativecommons.org/ns#"
   xmlns:rdf="http://www.w3.org/1999/02/22-rdf-syntax-ns#"
   xmlns:svg="http://www.w3.org/2000/svg"
   xmlns="http://www.w3.org/2000/svg"
   xmlns:sodipodi="http://sodipodi.sourceforge.net/DTD/sodipodi-0.dtd"
   xmlns:inkscape="http://www.inkscape.org/namespaces/inkscape"
   inkscape:version="1.0 (4035a4fb49, 2020-05-01)"
   sodipodi:docname="PointsINV.svg"
   xml:space="preserve"
   style="enable-background:new 0 0 78 78;"
   viewBox="0 0 78 78"
   y="0px"
   x="0px"
   id="Layer_1"
   version="1.1"><metadata
   id="metadata2019"><rdf:RDF><cc:Work
       rdf:about=""><dc:format>image/svg+xml</dc:format><dc:type
         rdf:resource="http://purl.org/dc/dcmitype/StillImage" /><dc:title></dc:title></cc:Work></rdf:RDF></metadata><defs
   id="defs2017" /><sodipodi:namedview
   inkscape:current-layer="Layer_1"
   inkscape:window-maximized="1"
   inkscape:window-y="-8"
   inkscape:window-x="-8"
   inkscape:cy="47.98379"
   inkscape:cx="26.305416"
   inkscape:zoom="3.5128205"
   showgrid="false"
   id="namedview2015"
   inkscape:window-height="715"
   inkscape:window-width="1366"
   inkscape:pageshadow="2"
   inkscape:pageopacity="0"
   guidetolerance="10"
   gridtolerance="10"
   objecttolerance="10"
   borderopacity="1"
   bordercolor="#666666"
   pagecolor="#ffffff" />
<style
   id="style2006"
   type="text/css">
	.st0{fill:#104667;}
</style>
<g
   style="fill:#ffffff;fill-opacity:1;stroke:none;stroke-opacity:1"
   id="g2012">
	<path
   style="fill:#ffffff;fill-opacity:1;stroke:none;stroke-opacity:1"
   id="path2008"
   d="M 76.5,24 C 73.6,12 65.3,4.1 52.9,1.6 50.2,1.1 48.6,0.9 45.7,0.8 L 43,0.7 42.5,1.2 42.1,1.6 V 18.3 35 l 0.4,0.5 0.4,0.5 h 16.5 c 11.1,0 16.7,0 17,-0.1 0.2,-0.1 0.6,-0.3 0.7,-0.5 0.3,-0.3 0.3,-0.5 0.3,-1.6 C 77.7,31.3 77.2,27 76.5,24 Z"
   class="st0" />
	<path
   style="fill:#ffffff;fill-opacity:1;stroke:none;stroke-opacity:1"
   id="path2010"
   d="m 55.3,39.2 h -12 L 43,39.5 c -0.5,0.5 -0.7,1 -0.6,2 0.3,3.1 -2,6.2 -5.1,7.2 -1,0.3 -2.6,0.3 -3.6,0 -2.9,-0.9 -5.1,-3.8 -5.1,-6.9 0,-1.6 0.7,-3.5 1.8,-4.8 1.3,-1.5 3,-2.3 5,-2.3 0.8,0 1.2,-0.1 1.5,-0.3 0.7,-0.5 0.7,0.2 0.7,-13.5 0,-13.9 0,-13.1 -0.8,-13.6 -0.3,-0.1 -1.3,-0.2 -3.5,0 -5.4,0.3 -10.5,1.7 -15,4 -5.2,2.6 -9.3,6.4 -12.4,11.3 -1,1.6 -2.5,4.7 -3.1,6.5 -2.4,6.7 -2.9,14.8 -1.5,21.6 2,9.3 7.5,17.1 15.3,22 6.6,4.1 14.5,5.8 22.9,4.7 5.4,-0.7 10.3,-2.5 14.4,-5.3 2,-1.4 3.2,-2.4 4.9,-4.2 3.5,-3.6 6,-7.9 7.6,-13 1.3,-4 2,-7.9 2.1,-12.4 0.1,-1.9 0.1,-2.1 -0.2,-2.5 -0.4,-0.9 0.4,-0.8 -13,-0.8 z"
   class="st0" />
</g>
</svg>
