<?xml version="1.0" encoding="utf-8"?>
<!-- Generator: Adobe Illustrator 21.1.0, SVG Export Plug-In . SVG Version: 6.00 Build 0)  -->
<svg version="1.1" id="Layer_1" xmlns="http://www.w3.org/2000/svg" xmlns:xlink="http://www.w3.org/1999/xlink" x="0px" y="0px"
	 viewBox="0 0 77 77" style="enable-background:new 0 0 77 77;" xml:space="preserve">
<style type="text/css">
	.st0{fill:#104667;}
</style>
<g transform="translate(0.000000,396.000000) scale(0.100000,-0.100000)">
	<path class="st0" d="M126.1,3957.6c-11.9-4.1-24.2-14.6-30.3-26.5l-5.3-10.1v-77.4v-77.4H54.8c-33.6,0-35.8-0.2-42.4-4.5
		c-12.3-7.8-12.3-6.4-11.7-145.3c0.6-116.2,0.8-126.1,4.3-130.9c7.6-11.1,11.5-12.1,50-12.6l35.4-0.8v-29.6c0-43,7-63.4,29.5-85.4
		c6.4-6,56.5-40.7,125-86c90.3-59.7,117-76.3,125.6-78.4c20.3-5.4,20.3-5.4,147.3,78.4c68.8,45.5,118.6,79.8,125,86
		c22.5,22,29.5,42.4,29.5,85.6v29.8h36.5c40.8,0,49.2,1.6,56.5,9.9l5.3,6v130.2c0,143,0.4,138.5-12.3,144.8
		c-4.7,2.3-14.1,2.9-46.1,2.9h-39.9v77.4v77.4l-5.3,10.1c-2.9,5.6-9,13-13.5,16.7c-16.6,13.6-0.2,12.8-272.8,12.6
		C170.3,3960.5,133.2,3959.9,126.1,3957.6z M717.2,3619.3v-96.3H385.4H53.6v96.3v96.3h331.8h331.8V3619.3z"/>
</g>
</svg>
