<?xml version="1.0" encoding="UTF-8" standalone="no"?>
<svg
   xmlns:dc="http://purl.org/dc/elements/1.1/"
   xmlns:cc="http://creativecommons.org/ns#"
   xmlns:rdf="http://www.w3.org/1999/02/22-rdf-syntax-ns#"
   xmlns:svg="http://www.w3.org/2000/svg"
   xmlns="http://www.w3.org/2000/svg"
   xmlns:sodipodi="http://sodipodi.sourceforge.net/DTD/sodipodi-0.dtd"
   xmlns:inkscape="http://www.inkscape.org/namespaces/inkscape"
   height="45.342529"
   width="49.269653"
   version="1.1"
   id="Layer_1"
   x="0px"
   y="0px"
   viewBox="0 0 49.269653 45.342529"
   xml:space="preserve"
   sodipodi:docname="ShareFinal.svg"
   inkscape:version="1.0 (4035a4fb49, 2020-05-01)"><metadata
   id="metadata128"><rdf:RDF><cc:Work
       rdf:about=""><dc:format>image/svg+xml</dc:format><dc:type
         rdf:resource="http://purl.org/dc/dcmitype/StillImage" /><dc:title></dc:title></cc:Work></rdf:RDF></metadata><defs
   id="defs126">
	
</defs><sodipodi:namedview
   fit-margin-bottom="0"
   fit-margin-right="0"
   fit-margin-left="0"
   fit-margin-top="0"
   inkscape:document-rotation="0"
   pagecolor="#ffffff"
   bordercolor="#666666"
   borderopacity="1"
   objecttolerance="10"
   gridtolerance="10"
   guidetolerance="10"
   inkscape:pageopacity="0"
   inkscape:pageshadow="2"
   inkscape:window-width="1366"
   inkscape:window-height="715"
   id="namedview124"
   showgrid="false"
   inkscape:zoom="6.85"
   inkscape:cx="18.796111"
   inkscape:cy="18.588732"
   inkscape:window-x="-8"
   inkscape:window-y="-8"
   inkscape:window-maximized="1"
   inkscape:current-layer="g1622" />
<style
   type="text/css"
   id="style115">
	.st0{fill:#E6ECF0;stroke:#E6ECF0;stroke-miterlimit:10;}
	.st1{fill:#10466C;stroke:#10466C;stroke-miterlimit:10;}
</style>
<rect
   x="-35.157307"
   y="131.64026"
   class="st0"
   width="80"
   height="80"
   id="rect117" />

<g
   transform="translate(-9.9397877,-13.94515)"
   id="g1622"><path
     id="path1586"
     d="m 41.362516,15.592541 c 0.52934,0.153204 15.74788,12.861834 16.1118,13.44678 0.29775,0.487452 0.29775,1.413617 0,1.901067 -0.29775,0.459597 -15.33433,13.084669 -15.84713,13.307503 -0.88499,0.376039 -2.22488,0.111421 -2.99408,-0.571018 -0.56242,-0.501379 -0.69476,-1.357906 -0.7113,-4.29656 v -2.715821 l -2.77904,0.08357 c -5.85582,0.167125 -9.23037,1.065434 -11.60413,3.091851 -2.109095,1.789655 -3.027169,3.990169 -3.440715,8.154416 -0.181961,1.887148 0,6.002649 0.347379,8.084777 0.181961,0.995804 -0.01655,1.469327 -0.69476,1.664306 -0.884991,0.264627 -1.248912,0 -2.960998,-2.13783 -2.646702,-3.314693 -4.441495,-6.685088 -5.070086,-9.498394 -0.380464,-1.7618 -0.248128,-6.350833 0.248127,-8.467779 0.711302,-2.994366 1.827879,-5.22969 3.506881,-7.123794 1.199285,-1.330059 3.556505,-3.147569 5.136255,-3.948384 3.573047,-1.817511 8.882997,-2.952582 14.532047,-3.119707 l 2.77904,-0.08357 v -2.701883 c 0,-1.483255 0.0827,-3.008293 0.18196,-3.384332 0.1985,-0.800817 0.77747,-1.357906 1.74517,-1.636452 0.79401,-0.229798 0.92635,-0.243726 1.51358,-0.04875 z"
     style="fill:#ffffff;stroke:#10466c;stroke-width:3.02362;stroke-miterlimit:10;stroke-dasharray:none;stroke-opacity:1" /></g></svg>
