<?xml version="1.0" encoding="utf-8"?>
<!-- Generator: Adobe Illustrator 21.1.0, SVG Export Plug-In . SVG Version: 6.00 Build 0)  -->
<svg version="1.1" id="Layer_1" xmlns="http://www.w3.org/2000/svg" xmlns:xlink="http://www.w3.org/1999/xlink" x="0px" y="0px"
	 viewBox="0 0 77 84" style="enable-background:new 0 0 77 84;" xml:space="preserve">
<style type="text/css">
	.st0{fill:#FFFFFF;stroke:#FFFFFF;stroke-miterlimit:10;}
	.st1{fill:#8F8F8F;}
	.st2{fill:#10466C;}
	.st3{fill:#515562;}
	.st4{fill:#252B3B;}
	.st5{fill:#FFFFFF;}
	.st6{fill:#8F97A2;}
	.st7{fill:#ECE6F0;}
	.st8{fill:#C9E8FA;}
</style>
<rect x="-8" y="0.5" class="st0" width="93" height="83.5"/>
<rect x="58.1" y="12.4" class="st1" width="5.8" height="9.7"/>
<g>
	<g>
		<rect x="8.4" y="27.3" class="st2" width="59.1" height="50.3"/>
	</g>
	<g>
		<rect x="24.5" y="60.8" class="st3" width="27" height="16.8"/>
	</g>
	<g>
		<rect x="25.8" y="62.3" class="st4" width="24.1" height="15.3"/>
	</g>
	<g>
		<g>
			<polygon class="st5" points="35.8,5.8 5.9,28.5 65.7,28.5 			"/>
		</g>
		<g>
			<polygon class="st1" points="76.6,29.8 38.8,3.5 38.7,3.6 38.4,3.4 -0.4,29 4.5,32.6 38.4,10.1 71.5,33.3 			"/>
		</g>
	</g>
	<g>
		<rect x="34.8" y="69.8" class="st5" width="1.3" height="4.2"/>
	</g>
	<g>
		<rect x="39.6" y="69.8" class="st5" width="1.3" height="4.2"/>
	</g>
	<g>
		<rect x="37" y="62.3" class="st3" width="1.8" height="15.9"/>
	</g>
	<g>
		<rect x="7.1" y="77.6" class="st1" width="61.8" height="2.8"/>
	</g>
	<g>
		<g>
			<rect x="14.1" y="31.6" class="st6" width="21.5" height="14.7"/>
		</g>
		<g>
			<rect x="15.6" y="32.6" class="st7" width="18.4" height="12.7"/>
		</g>
		<g>
			<polygon class="st6" points="33.8,37.9 26,37.9 26,32.6 22.9,32.6 22.9,37.9 15.4,37.9 15.4,39.9 22.9,39.9 22.9,45.2 26,45.2 
				26,39.9 33.8,39.9 			"/>
		</g>
	</g>
	<g>
		<g>
			<rect x="41.3" y="31.6" class="st6" width="21.5" height="14.7"/>
		</g>
		<g>
			<rect x="42.9" y="32.6" class="st8" width="18.4" height="12.7"/>
		</g>
		<g>
			<polygon class="st6" points="61.1,37.9 53.3,37.9 53.3,32.6 50.2,32.6 50.2,37.9 42.7,37.9 42.7,39.9 50.2,39.9 50.2,45.2 
				53.3,45.2 53.3,39.9 61.1,39.9 			"/>
		</g>
	</g>
</g>
<rect x="57.2" y="10.7" class="st2" width="7.6" height="2.2"/>
</svg>
