<?xml version="1.0" encoding="UTF-8" standalone="no"?>
<svg
   version="1.1"
   id="Layer_1"
   x="0px"
   y="0px"
   viewBox="0 0 42.515469 52.674999"
   xml:space="preserve"
   sodipodi:docname="Flame.svg"
   inkscape:version="1.1 (c4e8f9e, 2021-05-24)"
   width="42.515469"
   height="52.674999"
   xmlns:inkscape="http://www.inkscape.org/namespaces/inkscape"
   xmlns:sodipodi="http://sodipodi.sourceforge.net/DTD/sodipodi-0.dtd"
   xmlns="http://www.w3.org/2000/svg"
   xmlns:svg="http://www.w3.org/2000/svg"
   xmlns:rdf="http://www.w3.org/1999/02/22-rdf-syntax-ns#"
   xmlns:cc="http://creativecommons.org/ns#"
   xmlns:dc="http://purl.org/dc/elements/1.1/"><metadata
   id="metadata1084"><rdf:RDF><cc:Work
       rdf:about=""><dc:format>image/svg+xml</dc:format><dc:type
         rdf:resource="http://purl.org/dc/dcmitype/StillImage" /></cc:Work></rdf:RDF></metadata><defs
   id="defs1082" /><sodipodi:namedview
   inkscape:document-rotation="0"
   pagecolor="#ffffff"
   bordercolor="#666666"
   borderopacity="1"
   objecttolerance="10"
   gridtolerance="10"
   guidetolerance="10"
   inkscape:pageopacity="0"
   inkscape:pageshadow="2"
   inkscape:window-width="1296"
   inkscape:window-height="940"
   id="namedview1080"
   showgrid="false"
   inkscape:zoom="4.1461538"
   inkscape:cx="20.139147"
   inkscape:cy="26.048238"
   inkscape:window-x="0"
   inkscape:window-y="25"
   inkscape:window-maximized="0"
   inkscape:current-layer="Layer_1"
   fit-margin-top="0"
   fit-margin-left="0"
   fit-margin-right="0"
   fit-margin-bottom="0"
   inkscape:pagecheckerboard="0" />
<style
   type="text/css"
   id="style833">
	.st0{fill:#10466C;stroke:#10466C;stroke-miterlimit:10;}
	.st1{fill:#10466C;}
</style>

<g
   style="stroke-width:1.15332"
   id="g1077"
   transform="matrix(0.88086842,0,0,0.85347895,-10.504397,-5.3140056)">
	<path
   transform="matrix(1.1352433,0,0,1.1716751,11.925047,6.2262878)"
   d="m 20.347656,3.4121094 c 0,0 0.02236,0.021779 0.06641,0.064453 -0.04404,-0.042674 -0.06641,-0.064453 -0.06641,-0.064453 z m 0.507813,0.064453 c 0,0 -1.96e-4,0.085937 0.08789,0.085937 z m 0.175781,0.171875 v 0.1699219 0.1699218 l 0.08789,0.085938 c 0,0.085348 0.08789,0.085348 0.08789,0 v 0.1699218 c 0,0.085348 0.08789,0.085937 0.08789,0.085937 v 0.085937 0.085937 0.083984 0.171875 0.1699219 0.085937 0.1699219 c 0,0.085348 -1.96e-4,0.1712853 0.08789,0.085937 l 0.08789,0.1699219 h 0.08789 c -0.08809,0 -0.08789,-5.529e-4 -0.08789,0.7675781 0,0.5974353 1.96e-4,0.8535157 -0.08789,0.8535157 0,0.085348 -0.08789,0.1724646 -0.08789,0.2578125 V 7.4882812 7.6582031 7.8300781 8 c 0,0.085348 1.96e-4,0.171875 -0.08789,0.171875 0,0 -0.08789,0.084574 -0.08789,0.1699219 v 0.1699219 0.085937 0.085938 0.083984 c 0,0.085348 1.96e-4,0.086527 -0.08789,0.171875 0,0 -0.08789,0.084574 -0.08789,0.1699219 v 0.085937 0.085937 0.083984 0.085937 c 0,0.085348 1.97e-4,0.085937 -0.08789,0.085937 0,0 -0.08984,0.084574 -0.08984,0.1699218 0,0.085348 -0.08789,0.1699219 -0.08789,0.1699219 v 0.085937 c 0,0.085348 1.97e-4,0.085937 -0.08789,0.085937 0,0 -0.08789,0.08457 -0.08789,0.169922 0,0.08535 -0.08789,0.171875 -0.08789,0.171875 v 0.08398 0.08594 c -0.08809,0 -0.263671,0.256449 -0.263671,0.341797 v 0.08594 c -0.08809,0 -0.175782,0.08457 -0.175782,0.169922 v 0.08594 0.08398 c 0,0.08535 -0.0018,0.08594 -0.08984,0.08594 0,0 -0.08789,5.9e-4 -0.08789,0.08594 0,0 1.96e-4,0.08457 -0.08789,0.169922 -0.352347,-0.08535 -0.351562,0 -0.351562,0 l -0.705078,0.853516 c -0.440434,0.426739 -0.705078,0.853515 -0.705078,0.853515 l -0.175782,0.171875 -0.175781,0.169922 -0.265625,0.255859 c -0.08809,0.08535 -0.175585,0.25586 -0.263672,0.25586 l -0.08789,0.08594 -0.08789,0.08399 -0.08789,0.08594 -0.08789,0.08594 c -0.08809,0 -0.175782,0.170511 -0.175782,0.255859 0,0 -0.0018,0.08594 -0.08984,0.08594 -0.08809,0 -0.0877,-0.0014 -0.175781,0.08399 0,0.08535 -0.08789,0.08594 -0.08789,0.08594 0,0 -0.08789,5.9e-4 -0.08789,0.08594 0,0 1.96e-4,0.08398 -0.08789,0.08398 h -0.08789 c -0.08809,0 -0.175781,0.08653 -0.175781,0.171875 0,0 1.96e-4,0.08594 -0.08789,0.08594 0,0 -0.177734,0.08457 -0.177734,0.169922 l -0.175781,0.169921 h -0.08789 c 0,0 1.96e-4,0.08594 -0.08789,0.08594 -0.08809,0 -0.08789,0.08594 -0.08789,0.08594 0,0 1.96e-4,0.08398 -0.08789,0.08398 h -0.08789 c -0.08809,0 -0.177734,0.08653 -0.177734,0.171875 0,0 1.96e-4,0.08594 -0.08789,0.08594 h -0.08789 -0.08789 l -0.175781,0.169922 -0.175781,0.169922 c 0,0 -0.0877,0.08594 -0.175782,0.08594 -0.08809,0.08535 -0.08965,0.08594 -0.177734,0.08594 h -0.08789 l -0.263671,0.255859 v 0.08594 c 0,0.08535 -0.0877,0.169922 -0.175782,0.169922 h -0.08789 c 0,0 -0.08789,5.89e-4 -0.08789,0.08594 0,0 -0.0018,0.08398 -0.08984,0.08398 0,0 -0.175781,0.170511 -0.175781,0.255859 l -0.08789,0.08594 c -0.08809,0 -0.175585,0.08653 -0.263671,0.171875 -0.08809,0.08535 -0.0877,0.169922 -0.175782,0.169922 0,0 -0.08789,0.08457 -0.08789,0.169921 0,0 -0.08965,0.171875 -0.177735,0.171875 0,0 -0.08769,0.08398 -0.175781,0.08398 l -0.175781,0.171875 c -0.08809,0.256043 -0.175781,0.256449 -0.175781,0.341797 0,0.08535 1.96e-4,0.08398 -0.08789,0.08398 -0.08809,0 -0.08809,0.08594 0,0.08594 h -0.08789 v -0.08594 c 0,0 -0.08984,5.9e-4 -0.08984,0.08594 -0.08809,0.08535 -0.08809,0.171286 0,0.08594 l -0.08789,0.08398 c 0,0 -0.0877,5.9e-4 -0.175781,0.08594 l -0.175782,0.169922 -0.529297,0.513672 c -0.26426,0.256043 -0.4394526,0.511718 -0.4394526,0.511718 0,0 0.1751926,-0.171101 0.4394526,-0.341796 L 9.84375,20.802734 v 0.08594 H 9.755859 v 0.08398 c -0.088087,0 -0.087891,0.08594 -0.087891,0.08594 0,0 -0.087695,0.08516 -0.1757813,0.255859 0.088087,-0.08535 -0.00176,-0.08535 -0.089844,0 l -0.087891,0.08594 -0.087891,0.08398 c 0,-0.08535 -0.087694,5.9e-4 -0.1757813,0.08594 0,0.08535 -0.087694,0.171876 -0.1757812,0.171876 0,0 -0.088087,0.08398 0,0.08398 v 0.08594 c 0,0 -0.087694,0.170512 -0.1757812,0.25586 -0.088087,0.170696 -0.1777344,0.255859 -0.1777344,0.255859 0,-0.08535 1.962e-4,-0.08535 -0.087891,0 -0.088087,0.170696 -0.2636719,0.342387 -0.2636719,0.427734 -0.1761737,0.170696 -0.2636719,0.339844 -0.2636719,0.339844 0,0.08535 -0.089451,0.171101 -0.265625,0.341797 -0.088087,0.08535 -0.087891,0.171875 -0.087891,0.171875 v 0.08398 L 7.4648438,23.875 c 0,0 1.962e-4,0.08594 -0.087891,0.08594 -0.088087,0.08535 -0.087694,0.170511 -0.1757812,0.255859 v 0.08398 h -0.087891 v -0.08398 c 0,0 -0.087891,-0.0014 -0.087891,0.08398 0,0 1.962e-4,0.08594 -0.087891,0.08594 v 0.08594 l -0.087891,0.08594 c 0,0.08535 -0.089844,0.08398 -0.089844,0.08398 0,0 0.00176,0.08535 0.089844,0 l -0.089844,0.08594 v 0.08594 0.08398 c 0,0.08535 -0.087891,0.171874 -0.087891,0.171874 v 0.08398 c 0,0 -0.087891,5.89e-4 -0.087891,0.08594 0,0 3.924e-4,0.08516 -0.1757813,0.25586 v 0.08594 0.08594 l -0.087891,0.08398 c 0,0 1.962e-4,0.08653 -0.087891,0.171875 l -0.087891,0.08398 -0.087891,0.257813 v 0.08398 c 0,0 1.962e-4,0.08594 -0.087891,0.08594 -0.088087,0.08535 -0.2658212,0.425781 -0.1777344,0.425781 l -0.087891,0.08594 c 0,0.08535 1.962e-4,0.08653 -0.087891,0.171875 v 0.08398 0.08594 L 5.351557,27.800776 c 0,0 1.962e-4,0.08457 -0.087891,0.169922 -0.088087,0.08535 -0.087891,0.172465 -0.087891,0.257813 v 0.08398 0.171875 c 0,0.08535 1.963e-4,0.169922 -0.087891,0.169922 0,0 -0.088087,0.08594 0,0.08594 v 0.169922 c -0.088087,0.170696 -0.089844,0.257039 -0.089844,0.427735 0,0.08535 1.962e-4,0.08457 -0.087891,0.169921 0,0 -0.087891,0.08457 -0.087891,0.169922 0,0.08535 1.962e-4,0.171875 -0.087891,0.171875 v 0.169922 0.171875 0.169922 c 0,0.08535 1.962e-4,0.169922 -0.087891,0.169922 -0.088087,0 -0.088087,0.172465 0,0.257812 -0.088087,0 -0.087891,-0.0014 -0.087891,0.08398 v 0.08594 0.169922 c 0,0.08535 -0.087891,0.08653 -0.087891,0.171875 0,0 -0.087891,0.170512 -0.087891,0.25586 0,0.08535 1.962e-4,0.255859 -0.087891,0.255859 0,0 -0.087891,0.08457 -0.087891,0.169922 v 0.255859 c 0,0.08535 -0.00176,0.171101 -0.089844,0.341797 v 0.25586 0.341796 c 0,0.170696 1.962e-4,0.341797 -0.087891,0.341797 -0.088087,0.08535 -0.1761737,4.18223 0,4.267578 0.088087,0.08535 0.087891,0.170512 0.087891,0.25586 v 0.255859 c 0,0 0.00176,0.08457 0.089844,0.169922 v 0.171875 0.169922 c 0,0.08535 -1.962e-4,0.171875 0.087891,0.171875 v 0.169922 c 0,0.170696 0.087694,0.255859 0.1757812,0.255859 v 0.08594 c -0.088087,0 -0.088087,-0.0014 0,0.08398 -0.088087,-0.08535 -0.087891,5.9e-4 -0.087891,0.08594 V 39.75 c 0,0.08535 -1.962e-4,0.08594 0.087891,0.08594 v 0.08398 0.08594 0.08594 c 0,0 -1.962e-4,0.08398 0.087891,0.08398 v 0.25586 c 0,0 0.087891,5.89e-4 0.087891,0.08594 0,0.08535 -1.962e-4,0.08594 0.087891,0.08594 v 0.08594 c 0,0.08535 0.087891,0.169922 0.087891,0.169922 v 0.08594 0.08398 0.171875 l 0.087891,0.169922 c 0,0.08535 0.087891,0.169922 0.087891,0.169922 v 0.08594 c 0,0 0.089844,5.9e-4 0.089844,0.08594 v 0.08594 c 0,0 -1.962e-4,0.08457 0.087891,0.169922 0.088087,0.08535 0.087891,0.169922 0.087891,0.169922 v 0.08594 h 0.087891 c 0,0 0.087891,0.08457 0.087891,0.169922 0.088087,0.08535 0.1757813,0.172465 0.1757813,0.257813 0,0.08535 0.087694,0.170511 0.1757812,0.255859 0.088087,0.08535 0.087891,0.169922 0.087891,0.169922 0,0 0.2658213,0.170511 0.1777344,0.255859 v 0.08594 0.08594 c 0.088087,0 0.1757813,0.170512 0.1757813,0.25586 h 0.087891 l 0.087891,0.08398 c 0.088087,0.170696 0.1755851,0.255859 0.2636719,0.255859 v 0.08594 0.08594 c 0.088087,0 0.1777344,0.08457 0.1777344,0.169921 l 0.087891,0.08594 c 0.1761737,0.08535 0.3517587,0.255859 0.2636719,0.255859 0,0 0.087891,5.9e-4 0.087891,0.08594 0,0.08535 0.087891,0.08398 0.087891,0.08398 0,0 -1.962e-4,0.08594 0.087891,0.08594 l 0.1757812,0.171875 0.1777344,0.169921 H 7.90625 c 0.088087,0 0.087694,0.08594 0.1757812,0.08594 0.088087,0.08535 0.087695,0.08398 0.1757813,0.08398 h 0.087891 l 0.1757813,0.171875 c 0.088087,0.08535 0.1775381,0.169922 0.265625,0.169922 l 0.1757812,0.169922 c 0.088087,0 0.1757813,0.08594 0.1757813,0.08594 0,0.08535 0.3535156,0.255859 0.3535156,0.255859 0,0 0.087694,0.08594 0.1757813,0.08594 0.088087,0 0.1757812,0.08594 0.1757812,0.08594 h 0.087891 c 0,0 0.08789,-0.0014 0.08789,0.08398 l 0.08789,0.08594 c 0,0 0.08789,5.89e-4 0.08789,0.08594 0.08809,0.08535 0.08965,0.08398 0.177735,0.08398 0,0 0.08789,5.89e-4 0.08789,0.08594 0,0 0.08769,0.08594 0.175781,0.08594 0.08809,0 0.175781,0.08594 0.175781,0.08594 h 0.08789 0.08789 c 0,0.08535 0.177538,0.169922 0.265625,0.169922 h 0.08789 0.08789 c 0.08809,0 0.08789,5.9e-4 0.08789,0.08594 l 0.08789,0.08398 h 0.08789 0.08789 0.08789 0.08789 c 0.08809,0 0.08789,5.9e-4 0.08789,0.08594 0,0 0.0018,0.08594 0.08984,0.08594 h 0.08789 c 0,0 0.0877,0.08398 0.175782,0.08398 0,0 0.08789,5.9e-4 0.08789,0.08594 h 0.0879 H 12.75 c 0,0.08535 0.265429,0.171875 0.353516,0.171875 h 0.08789 0.08789 c 0.08809,0 0.08789,-0.0014 0.08789,0.08398 l 0.08789,0.08594 c 0.08809,0 0.0877,5.89e-4 0.175781,0.08594 h 0.08789 0.08789 0.08984 c 0.08809,0 0.0877,-0.0014 0.175782,0.08398 0,0 0.08769,0.08594 0.175781,0.08594 h 0.08789 0.08789 0.08789 0.08789 c 0.08809,0 0.177735,5.9e-4 0.177735,0.08594 0.08809,0.08535 0.263672,0.08535 0.263672,0 0,-0.08535 -0.175585,-0.341797 -0.263672,-0.341797 0,0 -0.0018,-0.08594 -0.08984,-0.08594 -0.08809,0 -0.08789,-0.08398 -0.08789,-0.08398 0,0 -0.08769,-0.08594 -0.175781,-0.08594 l -0.08789,-0.08594 c 0,0 -0.175586,-0.08516 -0.263672,-0.25586 l -0.265625,-0.255859 v -0.08594 c 0,-0.08535 1.96e-4,-0.08398 -0.08789,-0.08398 0,0 -0.08789,-5.89e-4 -0.08789,-0.08594 0,0 1.97e-4,-0.08594 -0.08789,-0.08594 l -0.08789,-0.08594 -0.08789,-0.169922 c 0,0 -0.08789,-0.08457 -0.08789,-0.169922 v -0.08594 c -0.08809,0 -0.263672,-0.170512 -0.263672,-0.25586 v -0.08594 c 0,0 -0.265625,-0.170512 -0.265625,-0.25586 0,-0.08535 -0.08769,-0.169922 -0.175781,-0.169922 v -0.08594 c 0,0 -0.08789,-5.9e-4 -0.08789,-0.08594 0,0 -0.08769,-0.170511 -0.175781,-0.255859 -0.08809,-0.08535 -0.175781,-0.170511 -0.175781,-0.255859 0,0 -0.177735,-0.256449 -0.177735,-0.341797 0,0 -0.175781,-0.170512 -0.175781,-0.25586 0,0 1.96e-4,-0.08398 -0.08789,-0.08398 v -0.08594 l -0.08789,-0.08594 v -0.08594 c 0,0 -0.08789,-0.08457 -0.08789,-0.169921 0,-0.08535 -0.08789,-0.169922 -0.08789,-0.169922 0,0 1.96e-4,-0.08594 -0.08789,-0.08594 v -0.08594 -0.08398 c -0.08809,-0.170695 -0.08965,-0.171875 -0.177735,-0.171875 0,-0.08535 1.97e-4,-0.08594 -0.08789,-0.08594 0,0 1.96e-4,-0.08457 -0.08789,-0.169922 -0.176173,-0.170696 -0.175977,-0.25527 -0.08789,-0.169922 0,0 -0.08789,-0.08653 -0.08789,-0.171875 0,-0.08535 1.96e-4,-0.170511 -0.08789,-0.255859 h 0.08789 v -0.08594 l -0.08789,-0.08398 c 0,0 1.97e-4,-0.08594 -0.08789,-0.08594 l -0.08789,-0.08594 c 0.08809,0.08535 0.175978,0.08535 0.08789,0 l -0.08789,-0.08398 v -0.08594 -0.08594 -0.08398 -0.171875 c 0,-0.08535 1.96e-4,-0.169922 -0.08789,-0.169922 0,0 -0.08789,-0.08653 -0.08789,-0.171875 v -0.255859 c -0.08809,-0.08535 -0.08809,-1.535156 0,-1.535156 v -0.25586 c 0,-0.170696 -1.96e-4,-0.255859 0.08789,-0.255859 0,0 0.08789,-0.08653 0.08789,-0.171875 0,-0.08535 -1.96e-4,-0.169922 0.08789,-0.169922 v -0.171875 -0.08398 c 0,0 0.175781,-0.342387 0.175781,-0.427735 0,-0.08535 0.08789,-0.255859 0.08789,-0.255859 0,-0.08535 0.263671,-0.511719 0.263671,-0.511719 v -0.08594 -0.08594 -0.08398 c 0,0 0.08984,-0.08653 0.08984,-0.171875 0,-0.08535 0.08789,-0.169922 0.08789,-0.169922 0,0 0.08789,-0.08457 0.08789,-0.169922 0,-0.08535 0.08789,-0.171875 0.08789,-0.171875 v -0.08398 -0.08594 -0.08594 -0.08594 l 0.08789,-0.08398 c 0,-0.08535 -1.96e-4,-0.08594 0.08789,-0.08594 0,0 0.08789,-5.89e-4 0.08789,-0.08594 0,0 0.08789,0.0014 0.08789,-0.08398 h 0.08789 c 0,0 -0.08809,-0.08594 0,-0.08594 0,0.170696 0.265625,7.74e-4 0.265625,-0.169922 0,-0.08535 0.439453,-0.513672 0.439453,-0.513672 l 0.08789,-0.08398 0.353516,-0.341797 0.175781,-0.171875 c 0,0 0.08789,0.0014 0.08789,-0.08398 l 0.08789,-0.08594 0.08789,-0.08594 0.263672,-0.255859 c 0.08809,-0.08535 0.265625,-0.170511 0.265625,-0.255859 l 0.175781,-0.169922 h 0.08789 l 0.08789,-0.08594 c 0.08809,0 0.175781,-0.08594 0.175781,-0.08594 0.08809,-0.08535 0.08789,-0.08553 0.08789,0.255859 v 0.341797 0.341797 0.341797 c 0,0 0.08984,0.170511 0.08984,0.255859 0,0.08535 -1.96e-4,0.25586 0.08789,0.25586 v 0.169922 0.171874 0.08594 c 0,0.08535 -1.96e-4,0.08457 0.08789,0.169922 0,0 0.08809,0.08594 0,0.08594 v 0.08398 c 0,0 0.08789,0.08653 0.08789,0.171875 v 0.08398 0.08594 c 0,0.08535 -1.97e-4,0.08594 0.08789,0.08594 v 0.08594 l 0.08789,0.08398 c 0,0 -1.96e-4,0.08594 0.08789,0.08594 0,0 0.08809,5.89e-4 0,0.08594 0,0 0.08789,-0.0014 0.08789,0.08398 0,0 -1.96e-4,0.08594 0.08789,0.08594 l 0.08789,0.08594 v 0.08398 l 0.177735,0.171875 c 0.08809,0.08535 0.08769,0.08398 0.175781,0.08398 v 0.08594 h 0.08789 0.08789 c 0,0 0.08789,0.08535 0.08789,0 v 0.08594 0.08594 c 0,0.08535 0.08769,0.08398 0.175781,0.08398 0,0 0.08965,5.9e-4 0.177734,0.08594 v -0.08594 h 0.08789 c 0.08809,0 0.08809,0.0014 0,-0.08398 0.08809,0.08535 0.08789,0.08535 0.08789,0 h 0.08789 0.175782 c 0.08809,0 0.08769,-0.0014 0.175781,0.08398 h 0.175781 l 0.08984,-0.08398 h 0.263672 0.08789 c 0,0 -1.96e-4,0.08398 0.08789,0.08398 0.08809,0 0.08809,0.0014 0,-0.08398 0.08809,0.08535 0.08789,0.08535 0.08789,0 0,0.08535 0.08769,0.08535 0.175781,0 v -0.08594 c 0,-0.08535 0.08789,-0.08535 0.08789,0 0,0.08535 0.0018,0.08535 0.08984,0 0,0 -1.96e-4,0.08535 0.08789,0 0.08809,0 0.175977,-0.08594 0.08789,-0.08594 h 0.08789 c 0,0.08535 0.0877,0 0.175781,0 0,0 0.08789,-0.08535 0.08789,0 h 0.08789 c 0,0 0.08965,-0.08594 0.177734,-0.08594 0.08809,0 0.08789,0.0014 0.08789,-0.08398 l 0.08789,-0.08594 h 0.08789 0.08789 0.08789 c 0.08809,0 0.08789,-5.89e-4 0.08789,-0.08594 0,0 -1.96e-4,-0.08398 0.08789,-0.08398 0,0 0.08789,-5.89e-4 0.08789,-0.08594 l 0.177734,-0.169922 h 0.08789 0.08789 0.08789 c 0,0 0.08789,-5.9e-4 0.08789,-0.08594 V 36.25 l 0.175781,-0.169922 0.175781,-0.171875 v -0.08398 -0.08594 -0.08594 -0.08398 c 0,0 -1.96e-4,-0.08653 0.08789,-0.171875 0,-0.08535 0.0018,-0.170511 0.08984,-0.255859 0.08809,-0.08535 0,-0.425597 0,-0.681641 v -0.257812 -0.08398 -0.08594 -0.08594 -0.08398 -0.08594 -0.08594 c 0,-0.08535 -0.08965,-0.256449 -0.177735,-0.341797 v -0.08398 c 0,-0.08535 -0.08769,-0.341797 -0.175781,-0.341797 0,0 -0.08789,-0.08457 -0.08789,-0.169922 0,-0.08535 -0.08769,-0.172464 -0.175781,-0.257812 l -0.08789,-0.08398 v -0.08594 c 0,-0.08535 -0.08789,-0.08594 -0.08789,-0.08594 v 0.08594 c 0,-0.08535 -0.08789,-0.08594 -0.08789,-0.08594 v -0.08398 c 0,0 -0.08809,-0.08594 0,-0.08594 h -0.08984 c 0,-0.08535 -0.527344,-0.597656 -0.527344,-0.597656 0.08809,0 -0.0875,-0.170511 -0.263672,-0.255859 l -0.08984,-0.08594 h -0.08789 v -0.08398 c 0,0 -0.08789,-5.9e-4 -0.08789,-0.08594 -0.08809,-0.08535 -0.08769,-0.08594 -0.175781,-0.08594 -0.08809,-0.08535 -0.175782,-0.08398 -0.175782,-0.08398 l -0.175781,-0.171874 -0.265625,-0.25586 c 0,0 1.96e-4,-0.08594 -0.08789,-0.08594 -0.08809,-0.08535 -0.0877,-0.08398 -0.175782,-0.08398 -0.176173,-0.170696 -0.263672,-0.428324 -0.263672,-0.513672 v -0.08398 -0.08594 -0.169921 c 0,0 -0.08789,-0.170512 -0.08789,-0.25586 v -0.08594 -0.171875 c 0,0 -0.08809,-0.511535 0,-0.767578 0.08809,0.08535 0.08789,-0.08516 0.08789,-0.25586 v -0.169922 c 0,-0.08535 -1.96e-4,-0.256449 0.08789,-0.341797 v -0.08594 -0.08398 -0.171875 c 0,0 0.08789,-5.9e-4 0.08789,-0.08594 v -0.169922 c 0,-0.08535 -1.96e-4,-0.169922 0.08789,-0.169922 v 0.08398 c 0,0 0.08789,-0.08457 0.08789,-0.169922 0,-0.08535 -1.96e-4,-0.169922 0.08789,-0.169922 v -0.08594 c 0,-0.08535 1.96e-4,-0.08535 -0.08789,0 0,-0.08535 -1.96e-4,-0.171876 0.08789,-0.171876 v -0.08398 -0.08594 -0.169922 c 0,0 0.175781,-0.426961 0.175781,-0.597657 0,-0.08535 -1.96e-4,-0.08594 0.08789,-0.08594 0,0 0.08984,-5.9e-4 0.08984,-0.08594 v -0.08398 -0.08594 -0.08594 -0.08398 c 0,-0.08535 -1.96e-4,-0.08594 0.08789,-0.08594 0,0 0.08789,-5.89e-4 0.08789,-0.08594 v -0.08594 -0.08398 -0.08594 -0.08594 c 0,0 -1.96e-4,-0.08457 0.08789,-0.169922 0.08809,-0.08535 0.08789,-0.169922 0.08789,-0.169922 v -0.08594 -0.08594 c 0,-0.08535 -1.96e-4,-0.08594 0.08789,-0.08594 0.08809,0 0.08789,0.0018 0.08789,0.257812 v 0.25586 0.255859 c 0,0.170696 -1.96e-4,0.255859 0.08789,0.255859 0,0 0.08789,0.08457 0.08789,0.169922 v 0.171875 0.169922 c 0,0.170696 0.0018,0.169922 0.08984,0.169922 h 0.08789 v 0.08594 c 0,0.08535 -1.97e-4,0.08594 0.08789,0.08594 0.08809,0 0.08789,0.08457 0.08789,0.169922 0,0 -1.96e-4,0.08594 0.08789,0.08594 l 0.08789,0.08594 c 0,0.08535 -1.96e-4,0.08398 0.08789,0.08398 0,0 0.08789,5.9e-4 0.08789,0.08594 v 0.08594 c 0.235214,0.4558 0.878584,1.28791 1.330078,1.652344 0.0042,0.01425 0.02041,0.01901 0.03711,0.03125 0.04222,0.03229 0.09323,0.08555 0.130859,0.107422 0,0 0.08789,5.89e-4 0.08789,0.08594 0,0.08535 0.08789,0.08535 0.08789,0 0,0 0.08789,5.9e-4 0.08789,0.08594 0.08809,0.08535 0.0877,0.08398 0.175781,0.08398 h 0.08984 C 21.824415,28.056051 22,28.142578 22,28.142578 c 0,0 0.08789,5.9e-4 0.08789,0.08594 l 0.263671,0.255859 c 0.08809,0.08535 0.175782,0.08398 0.175782,0.08398 l 0.08984,0.08594 h 0.08789 0.08789 c 0,0 -1.96e-4,0.08594 0.08789,0.08594 0,0 0.175585,0.08457 0.263672,0.169922 0.08809,0.08535 0.175585,0.08594 0.263672,0.08594 0,0 0.08984,5.89e-4 0.08984,0.08594 0,0 -1.96e-4,0.08398 0.08789,0.08398 0.08809,0 0.08789,0.08594 0.08789,0.08594 h 0.08789 c 0.08809,0 0.08789,5.9e-4 0.08789,0.08594 0,0.08535 -1.96e-4,0.08535 0.08789,0 h 0.08789 l 0.08789,0.08398 c 0.08809,0 0.177538,0.08653 0.265625,0.171875 0.08809,0.08535 0.175585,0.08398 0.263672,0.08398 h 0.08789 0.08789 0.08789 c 0.08809,0.08535 0.08789,0.08535 0.08789,0 0,0 1.96e-4,-0.08398 -0.08789,-0.08398 h 0.08789 l 0.08789,0.08398 c 0,0 -1.96e-4,0.08594 0.08789,0.08594 0,0 0.08984,5.89e-4 0.08984,0.08594 h 0.08789 0.08789 0.08789 0.08789 0.08789 c 0,0 0.08789,5.9e-4 0.08789,0.08594 0,0.08535 0.175585,0.169922 0.263672,0.169922 0,0 0.0018,0.08594 0.08984,0.08594 h 0.08789 c 0.08809,0 0.08769,0.08398 0.175781,0.08398 0.08809,0.08535 0.175585,0.08653 0.263672,0.171875 0.08809,0 0.175585,0.08398 0.263672,0.08398 0.176173,0.08535 0.265625,0.171875 0.265625,0.171875 l 0.792968,0.425781 h 0.08789 0.08789 c 0,0 0.08769,0.08594 0.175781,0.08594 0.08809,0 0.175781,0.08594 0.175781,0.08594 h 0.08789 c 0,0 0.08789,-0.0014 0.08789,0.08398 0,0 0.0018,0.08535 0.08984,0 h 0.08789 l 0.08789,0.08594 h 0.08789 0.08789 c 0,0 0.08789,5.9e-4 0.08789,0.08594 0,0 -1.96e-4,0.08594 0.08789,0.08594 0.08809,0 0.175977,-0.0014 0.08789,0.08398 h 0.08789 0.08789 0.08984 c 0,0 0.0877,0.08594 0.175782,0.08594 0.08809,0 0.175781,0.08594 0.175781,0.08594 h 0.08789 c 0,0 0.08789,-0.0014 0.08789,0.08398 0.08809,0.08535 0.265429,0.255859 0.353516,0.255859 -0.08809,0 -0.08809,0.08594 0,0.08594 0,0 0.08789,5.89e-4 0.08789,0.08594 l 0.175782,0.169922 0.175781,0.171875 0.175781,0.169922 c 0.08809,0.08535 0.0877,0.08594 0.175782,0.08594 0,0.08535 0.0018,0.08398 0.08984,0.08398 0,0 0.08789,5.89e-4 0.08789,0.08594 0,0 0.08789,0.08457 0.08789,0.169922 0,0 0.08789,5.9e-4 0.08789,0.08594 0,0 0.08789,0.08653 0.08789,0.171875 l 0.175781,0.169922 c 0,0 0.08789,0.08457 0.08789,0.169921 l 0.08789,0.08594 v 0.08594 c 0,0 -1.96e-4,0.08398 0.08789,0.08398 0.08809,0.08535 0.177734,0.172464 0.177734,0.257812 0,0.08535 0.08769,0.169922 0.175781,0.169922 0.08809,0.08535 0.08789,0.08457 0.08789,0.169922 0,0 -1.96e-4,0.08594 0.08789,0.08594 0,0 0.08789,0.08457 0.08789,0.169922 v 0.08594 c 0,0 0.08789,0.08653 0.08789,0.171875 0,0.08535 0.08789,0.169922 0.08789,0.169922 0,0 0.08789,5.89e-4 0.08789,0.08594 v 0.169922 c 0,0 0.0018,0.08457 0.08984,0.169922 v 0.08594 0.08594 c 0,0.08535 -1.96e-4,0.08457 0.08789,0.169922 0,0 0.08789,0.08653 0.08789,0.171875 v 0.169922 0.169922 0.171875 0.341797 c 0,0.170695 -1.96e-4,0.340433 0.08789,0.425781 0.08809,0.08535 0.08809,0.767578 0,0.767578 -0.08809,0 -0.08809,0.427734 0,0.427734 v 0.169922 0.08594 0.08594 h -0.08789 v 0.169922 c 0,0.08535 -1.96e-4,0.08535 0.08789,0 0,0.08535 -0.08789,0.170512 -0.08789,0.255859 v 0.171876 c 0,0 1.96e-4,0.08398 -0.08789,0.08398 v 0.171875 c 0,0.08535 1.96e-4,0.08398 -0.08789,0.08398 v 0.08594 0.169922 c 0,0 -0.0018,0.08653 -0.08984,0.171875 0,0.08535 1.96e-4,0.169922 -0.08789,0.169922 v 0.08594 c 0,0.08535 1.96e-4,0.08457 -0.08789,0.169922 0,0 -0.08789,0.08653 -0.08789,0.171875 v 0.08398 0.08594 0.08594 0.08398 c 0,0.08535 1.97e-4,0.08594 -0.08789,0.08594 0,0 -0.08789,5.9e-4 -0.08789,0.08594 0,0.08535 1.96e-4,0.169921 -0.08789,0.169921 0,0.08535 -0.08769,0.170512 -0.175781,0.25586 0,0.08535 -0.08789,0.171875 -0.08789,0.171875 v 0.08398 0.08594 c 0,0 -0.08984,0.08653 -0.08984,0.171875 0,0.08535 -0.08789,0.169922 -0.08789,0.169922 v 0.08594 c 0,0 1.96e-4,0.08457 -0.08789,0.169922 -0.08809,0.08535 -0.08789,0.08457 -0.08789,0.169922 0,0.08535 -0.08789,0.08653 -0.08789,0.171875 -0.08809,0.08535 -0.08789,0.169922 -0.08789,0.169922 0,0 -0.0875,0.171101 -0.263672,0.341797 -0.176174,0.170695 -0.265625,0.341797 -0.265625,0.341797 l -0.08789,0.08594 c -0.08809,0 -0.08769,0.08457 -0.175781,0.169922 0,0.08535 -0.08789,0.08594 -0.08789,0.08594 l -0.175781,0.169922 c -0.08809,0.08535 -0.08789,0.169922 -0.08789,0.169922 l -0.177734,0.171875 c -0.08809,0.08535 -0.08769,0.169922 -0.175781,0.169922 l -0.351563,0.341797 c -0.08809,0.08535 -0.08769,0.08594 -0.175781,0.08594 v 0.08398 h -0.08789 c 0,0 -0.08965,0.08594 -0.177734,0.08594 0,0.08535 -0.08789,0.08594 -0.08789,0.08594 h -0.08789 l -0.08789,0.08398 h -0.08789 -0.08789 c 0,0 -0.08789,5.9e-4 -0.08789,0.08594 l -0.08789,0.08594 c -0.08809,0 -0.08789,0.08594 -0.08789,0.08594 h -0.08984 c 0,0 -0.08789,-0.0014 -0.08789,0.08398 l -0.175781,0.171875 c -0.08809,0.08535 -0.175782,0.08457 -0.175782,0.169922 0,0 1.96e-4,0.08594 -0.08789,0.08594 -0.08809,0 -0.263672,0.08457 -0.263672,0.169922 H 27.8125 c 0,0 -0.08789,5.9e-4 -0.08789,0.08594 l -0.08789,0.08594 h -0.08789 -0.08789 c 0,0 -0.08789,-0.0014 -0.08789,0.08398 0,0 1.96e-4,0.08594 -0.08789,0.08594 v 0.08594 c 0,0.08535 0.175585,0.08535 0.263672,0 0,0 0.0877,-0.08594 0.175781,-0.08594 h 0.177735 0.08789 0.08789 0.175781 c 0.08809,0 0.0877,-5.89e-4 0.175782,-0.08594 0,0 0.08769,-0.08398 0.175781,-0.08398 h 0.08789 0.08984 0.08789 0.08789 c 0.08809,0 0.0877,-5.89e-4 0.175782,-0.08594 0,0 0.08769,-0.08594 0.175781,-0.08594 h 0.08789 0.08789 0.08789 0.08984 c 0,0 0.08789,-5.89e-4 0.08789,-0.08594 0,0 0.0877,-0.08398 0.175781,-0.08398 h 0.08789 0.08789 c 0.08809,0 0.263672,-0.08653 0.263672,-0.171875 h 0.08789 0.08984 0.175781 0.08789 0.08789 c 0,0 0.08789,0.0014 0.08789,-0.08398 l 0.08789,-0.08594 h 0.08789 0.08789 0.08789 0.08984 c 0,0 0.08789,-5.9e-4 0.08789,-0.08594 l 0.08789,-0.08398 c 0.08809,0 0.175586,-0.08653 0.263672,-0.171875 0,0 0.08789,-5.9e-4 0.08789,-0.08594 0.08809,0 0.08789,-0.08398 0.08789,-0.08398 h 0.08789 c 0.08809,0 0.265625,-0.08653 0.265625,-0.171875 h 0.08789 c 0.08809,0 0.08789,0.0014 0.08789,-0.08398 0,0 -1.96e-4,-0.08594 0.08789,-0.08594 h 0.08789 0.08789 0.08789 c 0,0 -1.96e-4,-0.08594 0.08789,-0.08594 0.08809,0 0.08789,0.0014 0.08789,-0.08398 l 0.08984,-0.08594 c 0.08809,0 0.08789,-0.08594 0.08789,-0.08594 h 0.08789 c 0,0 0.08789,0.0014 0.08789,-0.08398 l 0.08789,-0.08594 h 0.08789 l 0.08789,-0.08594 c 0.08809,0 0.175781,-0.08457 0.175781,-0.169922 0.08809,-0.08535 0.08965,-0.08594 0.177734,-0.08594 0,0 0.08789,-5.89e-4 0.08789,-0.08594 l 0.08789,-0.08398 h 0.08789 c 0,0 0.0875,-0.0012 0.263672,-0.171875 0.08809,-0.08535 0.08769,-0.08398 0.175781,-0.08398 0,0 0.08965,-0.08594 0.177735,-0.08594 0.08809,-0.08535 0.08769,-0.08594 0.175781,-0.08594 0,0 0.08789,-5.9e-4 0.08789,-0.08594 0,-0.08535 0.08789,-0.08398 0.08789,-0.08398 0,0 0.08789,-5.89e-4 0.08789,-0.08594 v -0.08594 c 0.08809,0 0.263672,-0.170511 0.263672,-0.255859 0,0 -1.96e-4,-0.08398 0.08789,-0.08398 0,0 0.08984,-5.89e-4 0.08984,-0.08594 0,0 -1.96e-4,-0.08535 0.08789,0 0,0 0.08769,-5.9e-4 0.175781,-0.08594 l 0.175781,-0.169922 0.175781,-0.171874 0.175782,-0.169922 c 0,0 0.08984,-0.08457 0.08984,-0.169922 l 0.08789,-0.171875 c 0,0 0.08789,-0.08457 0.08789,-0.169922 0,-0.08535 0.08769,-0.171875 0.175781,-0.171875 l 0.175781,-0.169922 c 0.08809,-0.08535 0.175781,-0.170511 0.175781,-0.255859 0,-0.08535 0.0018,-0.08594 0.08984,-0.08594 l 0.08789,-0.08594 c 0.08809,-0.170696 0.175585,-0.25586 0.263672,-0.25586 v -0.08398 c 0,0 0.08789,-0.08653 0.08789,-0.171875 0.08809,-0.08535 0.08789,-0.169922 0.08789,-0.169922 0,0 -1.96e-4,-0.08594 0.08789,-0.08594 0,0 0.08789,0.0014 0.08789,-0.08398 0,0 -1.96e-4,-0.08594 0.08789,-0.08594 0,0 0.08965,-0.171875 0.177734,-0.171875 0,-0.08535 0.08789,-0.169922 0.08789,-0.169922 v -0.08594 -0.08398 -0.08594 -0.08594 c 0,0 0.175781,-0.08457 0.175781,-0.169922 v -0.08594 c 0,-0.08535 -1.96e-4,-0.08594 0.08789,-0.08594 0.08809,0 0.175781,-0.340433 0.175781,-0.425781 v -0.08594 c 0,0 0.08789,-0.08457 0.08789,-0.169922 0,-0.08535 0.08789,-0.171875 0.08789,-0.171875 v -0.08398 -0.08594 c 0,0 0.177735,-0.340434 0.177735,-0.425782 v -0.08594 -0.08594 -0.08594 l 0.175781,-0.511719 c 0,-0.08535 0.08789,-0.169922 0.08789,-0.169922 v -0.08594 -0.169922 -0.171875 -0.08398 -0.171875 c 0,-0.08535 -1.97e-4,-0.170511 0.08789,-0.255859 0,0 0.08789,-0.170511 0.08789,-0.255859 V 35.824219 35.568359 35.3125 c 0,0 0.08809,-0.512898 0,-0.683594 l 0.08789,-0.08594 c 0,0 0.08789,-0.683225 0.08789,-1.195313 v -0.169922 c 1.409389,0.682784 1.410156,0.597067 1.410156,0.511719 0,-0.08535 1.96e-4,-0.68223 -0.08789,-0.767578 -0.08809,0 -0.08789,-0.08634 -0.08789,-0.427734 V 32.068359 31.8125 31.556641 c 0,0 1.96e-4,-0.170512 -0.08789,-0.25586 0,-0.170696 1.97e-4,-0.255859 -0.08789,-0.255859 V 30.873047 30.703125 30.53125 30.361328 30.191406 c 0,-0.08535 -0.0018,-0.171875 -0.08984,-0.171875 0,0 -0.08789,-0.08457 -0.08789,-0.169922 -0.08809,-0.256043 -0.08789,-0.342386 -0.08789,-0.427734 v -0.169922 c 0,-0.08535 1.96e-4,-0.08457 -0.08789,-0.169922 0,0 -0.08789,-0.08653 -0.08789,-0.171875 v -0.169922 -0.08594 c 0,-0.08535 1.96e-4,-0.08457 -0.08789,-0.169922 0,0 -0.08809,-0.08594 0,-0.08594 V 28.3125 L 40.4101,28.22852 v -0.171875 c 0,0 -0.08789,-0.170512 -0.08789,-0.25586 0,-0.08535 -0.08789,-0.169922 -0.08789,-0.169922 v -0.08594 -0.08594 c 0,0 -0.265625,-0.42637 -0.265625,-0.511718 v -0.08594 -0.08398 -0.08594 c 0,0 -0.08809,7.74e-4 0,-0.169922 0,0 1.96e-4,-0.08594 -0.08789,-0.08594 l -0.08789,-0.08594 v -0.08398 -0.08594 c 0,0 -0.08789,-0.08653 -0.08789,-0.171876 v -0.08398 c 0,0 1.96e-4,-0.08594 -0.08789,-0.08594 v -0.08594 c 0,0 1.96e-4,-0.08398 -0.08789,-0.08398 0,0 1.96e-4,-0.08653 -0.08789,-0.171875 l -0.08789,-0.08398 v -0.08594 c 0,-0.08535 -0.08789,-0.08594 -0.08789,-0.08594 v -0.08594 l -0.08984,-0.08398 c -0.08809,-0.08535 -0.08789,-0.171874 -0.08789,-0.171874 H 39 c 0,0 -0.08809,0.0014 0,-0.08398 0,-0.08535 1.96e-4,-0.170511 -0.08789,-0.255859 -0.08809,-0.08535 -0.175781,-0.172465 -0.175781,-0.257813 v -0.08398 c 0,0 1.96e-4,-0.08594 -0.08789,-0.08594 l -0.175782,-0.169921 c -0.08809,-0.08535 -0.177734,-0.170512 -0.177734,-0.25586 l -0.08789,-0.08594 c 0,0 3.93e-4,-0.08516 -0.175781,-0.25586 -0.08809,-0.08535 -0.08789,-0.08653 -0.08789,-0.171875 0,0 1.97e-4,-0.08398 -0.08789,-0.08398 0,0 -0.08789,-5.9e-4 -0.08789,-0.08594 0,0 1.96e-4,-0.08594 -0.08789,-0.08594 0,0 -0.08809,-0.08398 0,-0.08398 0,0 -0.265626,-0.170511 -0.265626,-0.255859 0,0 1.97e-4,-0.08594 -0.08789,-0.08594 -0.08809,0 -0.08789,-0.08594 -0.08789,-0.08594 0,0 -0.08769,-0.170511 -0.175781,-0.255859 -0.08809,-0.08535 -0.175781,-0.170512 -0.175781,-0.25586 0,0 1.96e-4,-0.08594 -0.08789,-0.08594 l -0.17774,-0.169922 c -0.08809,-0.08535 -0.08769,-0.171875 -0.175782,-0.171875 h -0.08789 l -0.175781,-0.169922 -0.175782,-0.169922 -0.175781,-0.171875 -0.177734,-0.169922 c 0,0 -0.08789,-5.89e-4 -0.08789,-0.08594 l -0.08789,-0.08594 c 0,0 -0.08789,-0.08457 -0.08789,-0.169921 -0.08809,-0.08535 -0.175781,-0.171286 -0.175781,-0.08594 L 35.125,20.291016 c 0,0 -0.03917,-0.02954 -0.08789,-0.05469 v -0.03125 l -0.08789,-0.08594 v 0.08594 l -0.177735,-0.169922 -0.08789,-0.08594 c -0.08809,0 -0.08789,-0.08594 -0.08789,-0.08594 0,0 1.96e-4,-0.08594 -0.08789,-0.08594 0.08809,0 0.08789,0.08535 0.08789,0 0,0 1.96e-4,-0.08398 -0.08789,-0.08398 h -0.08789 -0.08789 c 0,0 -0.08789,-5.89e-4 -0.08789,-0.08594 0,-0.08535 -0.265625,-0.25527 -0.265625,-0.169922 l -0.08789,-0.08594 c -0.08809,-0.08535 -0.263672,-0.169921 -0.263672,-0.169921 v -0.08594 -0.08594 c 0,0 -0.08789,-5.9e-4 -0.08789,-0.08594 -0.08809,0.256044 -0.263671,0.171875 -0.263671,0.171875 h -0.0879 c -0.08809,0 -0.08984,-0.08594 -0.08984,-0.08594 0,-0.08535 -0.08789,-0.08594 -0.08789,-0.08594 0,0 -0.08769,-0.08398 -0.175782,-0.08398 -0.08809,-0.08535 -0.175781,-0.08594 -0.175781,-0.08594 0,0 -0.03249,-0.01008 -0.05859,-0.03516 -0.05506,-0.0288 -0.09368,-0.02722 -0.0293,0.03516 0,-0.08535 -0.529296,-0.425781 -0.529296,-0.425781 h 0.08789 c 0,0 1.96e-4,-0.08594 -0.08789,-0.08594 h -0.08789 l -0.08789,-0.08594 c -0.08809,-0.08535 -0.08769,-0.08398 -0.175781,-0.08398 h -0.08789 c 0,-0.08535 -0.08769,-0.08535 -0.175781,0 v 0.511718 0.425782 0.08594 0.341797 0.169922 0.08594 0.08398 0.171875 c 0,0.08535 -0.0018,0.255859 -0.08984,0.255859 -0.08809,0.170696 -0.175782,0.426371 -0.175782,0.511719 v 0.08594 0.08594 c 0,0 1.96e-4,0.170511 -0.08789,0.255859 -0.08809,0.08535 -0.08789,0.170512 -0.08789,0.25586 v 0.08398 0.08594 h -0.08789 v 0.08594 c 0,0 -0.08789,0.08457 -0.08789,0.169922 v 0.08594 c 0,0 -0.0877,0.08516 -0.175782,0.25586 -0.08809,0.08535 -0.177538,0.255859 -0.265624,0.255859 l -0.175782,0.171875 -0.175781,0.169922 c 0,0 -0.01871,0.0027 -0.03516,0.0078 -0.0072,-0.0053 -0.01775,-0.0078 -0.05273,-0.0078 0,0 -0.08789,5.9e-4 -0.08789,0.08594 v 0.08398 h -0.08789 -0.08789 c 0,0.08535 -0.35273,0.171875 -0.705078,0.171875 H 28.783216 28.605482 28.34181 c 0,0 -0.0877,-0.08594 -0.175781,-0.08594 h -0.08789 -0.08789 c 0,0 -0.08789,-5.89e-4 -0.08789,-0.08594 h -0.08984 -0.08789 -0.08789 -0.08789 v -0.08398 c 0,-0.08535 1.96e-4,-0.08594 -0.08789,-0.08594 h -0.08789 -0.08789 -0.08789 -0.08789 c -0.08809,0 -0.08789,-5.9e-4 -0.08789,-0.08594 0,0 -0.0018,-0.08398 -0.08984,-0.08398 h -0.08789 -0.08789 -0.08789 -0.08789 c -0.08809,0 -0.08789,-5.89e-4 -0.08789,-0.08594 0,-0.08535 -0.175586,-0.25586 -0.263672,-0.25586 0,0 -0.08789,-5.89e-4 -0.08789,-0.08594 0,-0.08535 -0.08965,-0.169922 -0.177734,-0.169922 L 25.875,21.912109 c 0,-0.08535 -0.08769,-0.170511 -0.175781,-0.255859 -0.08809,-0.08535 -0.08789,-0.171875 -0.08789,-0.171875 v -0.08398 -0.08594 -0.169922 -0.171875 c 0,-0.08535 1.96e-4,-0.169922 -0.08789,-0.169922 -0.08809,0 -0.08789,-0.08575 -0.08789,-0.341796 0,-0.256044 -1.96e-4,-0.425782 0.08789,-0.425782 0,-0.08535 0.08789,-0.171101 0.08789,-0.341797 v -0.341797 -0.169921 -0.171875 -0.169922 c 0,-0.08535 -1.96e-4,-0.25586 0.08789,-0.25586 0,0 0.08789,-0.08653 0.08789,-0.171875 V 18.24219 18.072268 17.900393 17.730471 c 0,-0.08535 -1.96e-4,-0.171875 0.08789,-0.171875 0,0 0.08789,-0.08457 0.08789,-0.169922 v -0.08594 -0.169922 -0.171874 -0.169922 c 0,-0.08535 -1.97e-4,-0.169922 0.08789,-0.169922 0,0 0.08984,-0.08653 0.08984,-0.171875 V 16.279297 16.107422 15.9375 15.767578 c 0,-0.08535 -1.96e-4,-0.171875 0.08789,-0.171875 0,0 0.08789,-0.08457 0.08789,-0.169922 v -0.171875 -0.169922 -0.169922 -0.171874 c 0,-0.08535 -1.96e-4,-0.170512 0.08789,-0.25586 0.08809,-0.08535 0.08789,-0.25608 0.08789,-0.853516 0,-0.170695 -1.97e-4,-0.340433 0.08789,-0.425781 0.08809,-0.08535 0.08809,-0.768167 0,-0.853515 V 12.011719 11.669922 11.5 c 0,-0.170696 1.96e-4,-0.171875 -0.08789,-0.171875 0,0 -0.08789,-0.08457 -0.08789,-0.169922 v -0.169922 -0.08594 -0.08594 -0.08594 c 0,-0.08535 1.96e-4,-0.169922 -0.08789,-0.169922 l -0.08789,-0.08594 v -0.08398 -0.08594 -0.08594 -0.08398 c 0,-0.08535 1.96e-4,-0.08594 -0.08789,-0.08594 -0.08809,0 -0.08984,-5.89e-4 -0.08984,-0.085937 V 9.876945 9.792961 9.707023 9.621086 c 0,0 1.96e-4,-0.084574 -0.08789,-0.1699219 C 25.874804,9.365824 25.875,9.28125 25.875,9.28125 25.875,9.195902 25.78731,9.109375 25.699219,9.109375 V 9.025391 c 0,-0.085348 1.96e-4,-0.086527 -0.08789,-0.171875 l -0.08789,-0.085937 c 0,0 1.96e-4,-0.084574 -0.08789,-0.1699219 -0.08809,-0.085348 -0.08789,-0.084574 -0.08789,-0.1699218 0,0 1.96e-4,-0.085937 -0.08789,-0.085937 L 25.082031,8.171875 c 0,0 -0.175585,-0.2578125 -0.263672,-0.2578125 v -0.083984 -0.085937 c 0,0 -0.08789,-0.084574 -0.08789,-0.1699218 C 24.642382,7.403523 24.554884,7.2324219 24.466797,7.2324219 v -0.085937 c 0,-0.085348 -0.177538,-0.2558594 -0.265625,-0.2558594 v -0.085937 c 0,-0.085348 -0.526951,-0.5968823 -0.703125,-0.7675781 L 23.320312,5.8671875 23.232422,5.78125 V 5.695313 c 0,-0.085348 -0.175585,-0.2558594 -0.263672,-0.2558594 0,0 1.96e-4,-0.085937 -0.08789,-0.085937 0,0 -0.175585,-0.084574 -0.263671,-0.1699218 C 22.441014,5.012898 22.351562,4.928324 22.351562,5.0136719 l -0.08789,-0.085937 c 0,0 -0.175585,-0.2558594 -0.263672,-0.2558594 v 0.085937 l -0.08789,-0.085937 -0.08789,-0.085937 v -0.083984 -0.085937 h -0.08789 c -0.08809,0 -0.08809,5.896e-4 0,0.085937 v 0.083984 C 21.11972,3.5617628 21.031054,3.5617261 21.119141,3.7324219 Z M 32.599609,18.71875 c 0.02027,0.01061 0.03489,0.01219 0.05859,0.03516 l -0.08789,-0.08594 c 0,0.0286 0.01614,0.03814 0.0293,0.05078 z m 2.4375,1.486328 0.08789,0.08594 c 0,0 1.96e-4,-0.08594 -0.08789,-0.08594 z m -13.300781,7.765625 c 0,0.08535 0.08789,0.08594 0.08789,0.08594 z m -10.042969,7.767578 c 0,0 -0.03063,0.0085 -0.05664,0.03125 0.01294,-0.01471 0.02406,-0.03125 0.05664,-0.03125 z m -0.05664,0.03125 c -0.02204,0.02507 -0.03125,0.05469 -0.03125,0.05469 0,-0.03039 0.01687,-0.04209 0.03125,-0.05469 z M 21.294922,3.8183594 c 0.176174,0.2560437 0.616599,0.6828198 0.880859,0.8535156 L 21.382812,3.9042969 Z m 0.880859,0.8535156 c 0,0.085348 0.0877,0.1699219 0.175781,0.1699219 z M 20.589844,4.1601562 v 0.1699219 c 0.08809,0 0,-0.084574 0,-0.1699219 z M 10.373047,19.095703 c -0.08809,0 -0.177735,0.08457 -0.177735,0.169922 z m -1.9394532,1.962891 c -0.088087,0 -0.087891,0.08594 -0.087891,0.08594 z m -2.1132813,2.902344 -0.087891,0.08398 c 0.088087,0 0.087891,-0.08398 0.087891,-0.08398 z m 12.8613285,1.535156 v 0.08594 z m 0.263671,0.683594 c 0,0.08535 0.175782,0.255859 0.175782,0.255859 0,0 1.96e-4,-0.08457 -0.08789,-0.169922 0,-0.08535 -0.08789,-0.08594 -0.08789,-0.08594 z m 0.191407,0.30664 c -0.0096,0.0027 -0.01563,0.01382 -0.01563,0.03516 0,0 -1.96e-4,0.08398 0.08789,0.08398 l 0.08789,0.08594 0.08789,0.08594 c 0,0 1.96e-4,-0.08653 -0.08789,-0.171875 -0.06606,-0.06401 -0.131253,-0.127142 -0.160156,-0.119141 z m 0.46875,0.556641 c -0.02202,-0.01067 0.04453,0.0754 0.220703,0.246093 l 0.08398,0.08008 c -0.171468,-0.20688 -0.282999,-0.315668 -0.304683,-0.326173 z M 20.414062,27.375 c 0.08809,0.08535 0.175586,0.255859 0.263672,0.255859 z m 4.667969,3.072266 h 0.08789 z m -9.160156,7.253906 v 0.08594 z m 0.175781,0.08594 v 0.08398 z m 1.84961,0.169922 h 0.08789 z"
   style="fill:#ffffff;fill-opacity:1;stroke-width:1"
   id="path837" />
	
	
	
	
	
	
	
	
	
	
	
	
	
	
	
	
	
	
	
	
	
	
	
	
	
	
	
	
	
	
	
	
	
	
	
	
	
	
	
	
	
	
	
	
	<polygon
   style="stroke-width:1.15332"
   class="st1"
   points=""
   id="polygon927" />
	
	
	
	
	
	
	
	
	
	
	
	
	
	
	
	
	
	
	
	
	
	
	
	
	
	
	
	
	
	
	
	
	
	
	
	
	
	
	
	
	
	
	
	
	
	
	
	
	
	
	
	
	
	
	
	
	
	
	
	
	
	
	
	
	
	
	
	
	
	
	<ellipse
   style="stroke-width:1.15332"
   class="st1"
   cx="44.099998"
   cy="31.9"
   rx="0.1"
   ry="0"
   id="ellipse1069" />
	
	
	
</g>
</svg>
