<?xml version="1.0" encoding="utf-8"?>
<!-- Generator: Adobe Illustrator 21.1.0, SVG Export Plug-In . SVG Version: 6.00 Build 0)  -->
<svg version="1.1" id="Layer_1" xmlns="http://www.w3.org/2000/svg" xmlns:xlink="http://www.w3.org/1999/xlink" x="0px" y="0px"
	 viewBox="0 0 86 85" style="enable-background:new 0 0 86 85;" xml:space="preserve">
<style type="text/css">
	.st0{fill:#FFFFFF;stroke:#FFFFFF;stroke-miterlimit:10;}
	.st1{fill:#F6A230;}
	.st2{fill:#FFFF00;}
	.st3{fill:#D53349;}
	.st4{fill:#08AA6E;}
	.st5{fill:#53180F;}
</style>
<rect x="-3" y="0.5" class="st0" width="93" height="83.5"/>
<g>
	<path class="st1" d="M82,32.5c-0.8,6-13.2,6-37.9,6.1c-25.5,0-38.2,0.1-39.1-6.1C4,24.2,23.1,4,43.5,4S83.1,24.2,82,32.5z"/>
	<path class="st1" d="M69.5,81H16.9C10.9,81,6,76.1,6,70.1l0,0c0-6,4.9-10.9,10.9-10.9h52.6c6,0,10.9,4.9,10.9,10.9l0,0
		C80.4,76.1,75.5,81,69.5,81z"/>
	<polygon class="st2" points="35.1,77 47.7,53 17.3,57.9 	"/>
	<path class="st3" d="M68.5,45.2c-2.7,0-5.1,0.8-6.9,2c-1.8-1.3-4.3-2-6.9-2s-5.1,0.8-6.9,2c-1.8-1.3-4.3-2-6.9-2
		c-1.8,0-3.5,0.4-5,1c-1.5-0.6-3.2-1-5-1c-2.5,0-4.8,0.7-6.5,1.8c-1.8-1.1-4.1-1.8-6.5-1.8c-5.7,0-10.4,3.6-10.4,8s4.7,8,10.4,8
		c2.5,0,4.8-0.7,6.5-1.8c1.8,1.1,4.1,1.8,6.5,1.8c1.8,0,3.5-0.4,5-1c1.5,0.6,3.2,1,5,1c2.7,0,5.1-0.8,6.9-2c1.8,1.3,4.3,2,6.9,2
		s5.1-0.8,6.9-2c1.8,1.3,4.3,2,6.9,2c5.7,0,10.4-3.6,10.4-8C78.9,48.7,74.3,45.2,68.5,45.2z"/>
	<path class="st4" d="M72.6,49.6c-3.4-3.1-6-3.3-7.7-3c-2.8,0.5-3.6,2.7-7.6,3.7c-1.4,0.3-3.5,0.8-6,0c-3.2-1.1-3.1-3.2-6-4.4
		c-2.4-1-5-0.2-10.3,1.5c-5,1.6-4.6,2.2-6.5,2.2c-4.5,0-5.8-3.7-9.8-3.7c-1.6,0-4,0.7-6.8,3.8c-0.3,0-1.9,0-3.1-1.8
		c-0.8-1.1-1.3-2.6-1.3-4.2l0,0c0-3.3,2-6,4.4-6h60.7c2.4,0,4.4,2.7,4.4,6l0,0C75.5,45.6,74,47.6,72.6,49.6z"/>
	<rect x="34.3" y="14.8" class="st5" width="1.5" height="0.6"/>
	<rect x="38.1" y="21.9" class="st5" width="1.5" height="0.6"/>
	<rect x="43.5" y="14.8" class="st5" width="1.5" height="0.6"/>
	<rect x="49.7" y="21" class="st5" width="1.5" height="0.6"/>
</g>
</svg>
