<?xml version="1.0" encoding="UTF-8" standalone="no"?>
<svg
   inkscape:version="1.1 (c4e8f9e, 2021-05-24)"
   sodipodi:docname="whiterefimage.svg"
   xml:space="preserve"
   viewBox="0 0 77 77"
   y="0px"
   x="0px"
   id="Layer_1"
   version="1.1"
   width="77"
   height="77"
   xmlns:inkscape="http://www.inkscape.org/namespaces/inkscape"
   xmlns:sodipodi="http://sodipodi.sourceforge.net/DTD/sodipodi-0.dtd"
   xmlns="http://www.w3.org/2000/svg"
   xmlns:svg="http://www.w3.org/2000/svg"
   xmlns:rdf="http://www.w3.org/1999/02/22-rdf-syntax-ns#"
   xmlns:cc="http://creativecommons.org/ns#"
   xmlns:dc="http://purl.org/dc/elements/1.1/"><metadata
   id="metadata2793"><rdf:RDF><cc:Work
       rdf:about=""><dc:format>image/svg+xml</dc:format><dc:type
         rdf:resource="http://purl.org/dc/dcmitype/StillImage" /></cc:Work></rdf:RDF></metadata><defs
   id="defs2791" /><sodipodi:namedview
   inkscape:current-layer="g2786"
   inkscape:window-maximized="0"
   inkscape:window-y="25"
   inkscape:window-x="0"
   inkscape:cy="55.272087"
   inkscape:cx="15.01044"
   inkscape:zoom="3.564186"
   showgrid="false"
   id="namedview2789"
   inkscape:window-height="936"
   inkscape:window-width="1296"
   inkscape:pageshadow="2"
   inkscape:pageopacity="0"
   guidetolerance="10"
   gridtolerance="10"
   objecttolerance="10"
   borderopacity="1"
   bordercolor="#666666"
   pagecolor="#ffffff"
   inkscape:document-rotation="0"
   inkscape:snap-global="false"
   fit-margin-top="0"
   fit-margin-left="0"
   fit-margin-right="0"
   fit-margin-bottom="0"
   inkscape:pagecheckerboard="0" />
<style
   id="style2734"
   type="text/css">
	.st0{fill:#FFFFFF;}
</style>
<g
   id="g2786"
   transform="translate(3.1559242,4.8214922)">
	
	
	
	
	<g
   style="fill:#ffffff;fill-opacity:1;stroke-width:0.999215"
   id="g2764"
   transform="matrix(0.95003032,0,0,1.0542417,-0.55930309,-4.1395054)">
		<path
   style="fill:#ffffff;fill-opacity:1;stroke-width:0.999215"
   id="path2760"
   d="m 36.9,42 c -0.5,0 -1,-0.2 -1.3,-0.5 L 22.2,28.1 11.6,35.2 v -3.4 l 9.7,-6.5 C 21.6,25.1 22,25 22.4,25 c 0.5,0 1,0.2 1.3,0.5 v 0 h 0.1 c 0.1,0.1 0.2,0.2 0.3,0.2 l 14.1,14.1 c 0.2,0.2 0.4,0.5 0.3,0.9 0,0.3 -0.2,0.6 -0.6,0.9 -0.2,0.2 -0.6,0.4 -1,0.4 z" />
		<path
   style="fill:#ffffff;fill-opacity:1;stroke-width:0.999215"
   id="path2762"
   d="m 22.4,25.5 v 0 c 0.4,0 0.7,0.1 0.9,0.3 l 0.1,0.1 0.1,0.1 c 0.1,0 0.2,0.1 0.2,0.2 l 14.1,14.1 c 0.1,0.1 0.2,0.3 0.2,0.5 0,0.2 -0.1,0.4 -0.3,0.5 -0.2,0.1 -0.5,0.2 -0.8,0.2 -0.4,0 -0.7,-0.1 -1,-0.4 l -13,-13.1 -0.6,-0.6 -0.7,0.5 -9.5,6.4 v -2.2 l 9.5,-6.4 c 0.2,-0.1 0.5,-0.2 0.8,-0.2 m 0,-1 c -0.5,0 -1,0.1 -1.4,0.4 l -9.9,6.7 v 4.6 l 11.1,-7.4 13.1,13.1 c 0.4,0.4 1,0.6 1.7,0.6 0.5,0 1,-0.1 1.4,-0.4 0.9,-0.6 1.1,-1.7 0.3,-2.5 L 24.5,25.5 C 24.4,25.4 24.2,25.3 24.1,25.2 23.6,24.7 23,24.5 22.4,24.5 Z" />
	</g>
	<g
   style="fill:#ffffff;fill-opacity:1;stroke-width:1.08087"
   id="g2770"
   transform="matrix(0.89901815,0,0,0.95210045,0.00693238,-0.16621267)">
		<path
   style="fill:#ffffff;fill-opacity:1;stroke-width:1.08087"
   id="path2766"
   d="m 34.6,46.9 c -0.5,0 -1,-0.2 -1.4,-0.5 -0.5,-0.4 -0.8,-0.9 -0.8,-1.5 -0.1,-0.6 0.1,-1.2 0.5,-1.6 L 51.1,21.5 c 0.1,-0.1 0.3,-0.3 0.4,-0.4 v 0 0 c 0.4,-0.5 1.1,-0.8 1.7,-0.8 0.5,0 1,0.2 1.4,0.5 L 67.2,31 v 5.8 L 53.6,25.5 36.4,46 c -0.4,0.6 -1.1,0.9 -1.8,0.9 z" />
		<path
   style="fill:#ffffff;fill-opacity:1;stroke-width:1.08087"
   id="path2768"
   d="m 53.4,20.6 c 0.4,0 0.8,0.1 1.1,0.4 L 67,31 v 4.5 L 54.3,25.4 53.5,24.8 52.9,25.6 36,45.7 c -0.3,0.4 -0.8,0.6 -1.4,0.6 -0.4,0 -0.8,-0.1 -1.1,-0.4 -0.4,-0.3 -0.6,-0.7 -0.6,-1.2 0,-0.5 0.1,-0.9 0.4,-1.3 L 51.5,21.6 c 0.1,-0.1 0.2,-0.2 0.3,-0.3 l 0.1,-0.1 0.1,-0.1 c 0.4,-0.3 0.9,-0.5 1.4,-0.5 m 0,-1 c -0.8,0 -1.6,0.3 -2.1,0.9 -0.2,0.1 -0.4,0.3 -0.5,0.5 L 32.5,42.9 c -1,1.2 -0.8,2.9 0.4,3.8 0.5,0.4 1.1,0.6 1.8,0.6 0.8,0 1.6,-0.3 2.2,-1 L 53.8,26.1 68,37.6 V 30.5 L 55.1,20.2 C 54.6,19.8 54,19.6 53.4,19.6 Z" />
	</g>
	<g
   style="fill:none;fill-opacity:1;stroke:#ffffff;stroke-width:1.08087;stroke-miterlimit:4;stroke-dasharray:none;stroke-opacity:1"
   id="g2784"
   transform="matrix(0.89901815,0,0,0.95210045,0.36530799,-0.90162932)">
		<g
   style="fill:none;fill-opacity:1;stroke:#ffffff;stroke-width:1.08087;stroke-miterlimit:4;stroke-dasharray:none;stroke-opacity:1"
   id="g2776">
			<path
   id="ellipse2772"
   style="fill:none;fill-opacity:1;stroke:#ffffff;stroke-width:1.08087;stroke-miterlimit:4;stroke-dasharray:none;stroke-opacity:1"
   d="m 38.6,20.700001 a 3.0999999,3.3 0 0 1 -3.1,3.3 3.0999999,3.3 0 0 1 -3.1,-3.3 3.0999999,3.3 0 0 1 3.1,-3.3 3.0999999,3.3 0 0 1 3.1,3.3" />
			<path
   style="fill:none;fill-opacity:1;stroke:#ffffff;stroke-width:1.08087;stroke-miterlimit:4;stroke-dasharray:none;stroke-opacity:1"
   id="path2774"
   d="m 35.5,17.9 c 1.5,0 2.6,1.3 2.6,2.8 0,1.5 -1.2,2.8 -2.6,2.8 -1.5,0 -2.6,-1.3 -2.6,-2.8 0,-1.5 1.1,-2.8 2.6,-2.8 m 0,-1 c -2,0 -3.6,1.7 -3.6,3.8 0,2.1 1.6,3.8 3.6,3.8 2,0 3.6,-1.7 3.6,-3.8 0,-2.1 -1.6,-3.8 -3.6,-3.8 z" />
		</g>
		<g
   style="fill:none;fill-opacity:1;stroke:#ffffff;stroke-width:1.08087;stroke-miterlimit:4;stroke-dasharray:none;stroke-opacity:1"
   id="g2782">
			<path
   id="ellipse2778"
   style="fill:none;fill-opacity:1;stroke:#ffffff;stroke-width:1.08087;stroke-miterlimit:4;stroke-dasharray:none;stroke-opacity:1"
   d="m 37.800002,20.6 a 2.4000001,2.5 0 0 1 -2.4,2.5 2.4000001,2.5 0 0 1 -2.400001,-2.5 2.4000001,2.5 0 0 1 2.400001,-2.5 2.4000001,2.5 0 0 1 2.4,2.5"
   class="st0" />
			<path
   style="fill:none;fill-opacity:1;stroke:#ffffff;stroke-width:1.08087;stroke-miterlimit:4;stroke-dasharray:none;stroke-opacity:1"
   id="path2780"
   d="m 35.4,18.6 c 1.1,0 1.9,0.9 1.9,2 0,1.1 -0.9,2 -1.9,2 -1.1,0 -1.9,-0.9 -1.9,-2 0,-1.1 0.9,-2 1.9,-2 m 0,-1 c -1.6,0 -2.9,1.4 -2.9,3 0,1.7 1.3,3 2.9,3 1.6,0 2.9,-1.4 2.9,-3 0,-1.6 -1.3,-3 -2.9,-3 z" />
		</g>
	</g>
<rect
   ry="0.39742497"
   rx="462.77301"
   y="9.0420494"
   x="10.436969"
   height="43.75729"
   width="50.889343"
   id="rect854"
   style="fill:none;stroke:#ffffff;stroke-width:5.5;stroke-miterlimit:4;stroke-dasharray:none;fill-opacity:1;stroke-opacity:1" /></g>
</svg>
