<?xml version="1.0" encoding="UTF-8" standalone="no"?>
<!-- Generator: Adobe Illustrator 21.1.0, SVG Export Plug-In . SVG Version: 6.00 Build 0)  -->

<svg
   version="1.1"
   id="Layer_1"
   x="0px"
   y="0px"
   viewBox="0 0 80 80"
   style="enable-background:new 0 0 80 80;"
   xml:space="preserve"
   sodipodi:docname="whiteiconstatus.svg"
   inkscape:version="1.1 (c4e8f9e, 2021-05-24)"
   xmlns:inkscape="http://www.inkscape.org/namespaces/inkscape"
   xmlns:sodipodi="http://sodipodi.sourceforge.net/DTD/sodipodi-0.dtd"
   xmlns="http://www.w3.org/2000/svg"
   xmlns:svg="http://www.w3.org/2000/svg"><defs
   id="defs896" /><sodipodi:namedview
   id="namedview894"
   pagecolor="#ffffff"
   bordercolor="#666666"
   borderopacity="1.0"
   inkscape:pageshadow="2"
   inkscape:pageopacity="0.0"
   inkscape:pagecheckerboard="0"
   showgrid="false"
   inkscape:zoom="8.0240837"
   inkscape:cx="66.238092"
   inkscape:cy="40.004568"
   inkscape:window-width="1312"
   inkscape:window-height="938"
   inkscape:window-x="451"
   inkscape:window-y="25"
   inkscape:window-maximized="0"
   inkscape:current-layer="g891" />
<style
   type="text/css"
   id="style883">
	.st0{fill:none;}
	.st1{fill:#10466C;}
</style>
<g
   id="g891"
   style="stroke:none;stroke-opacity:1">
	<path
   class="st0"
   d="M71.7,9.2l-0.9-0.6L41,8.5c-23.2,0-29.9,0-30.5,0.3c-1.6,0.7-3.1,2.6-3.8,5l-0.4,1.3v25.8v25.8l0.5,1.6   c0.6,1.9,1.8,3.7,3.1,4.5l0.9,0.5h29.8c29.2,0,29.8,0,30.6-0.4c1.8-1,3.2-3.5,3.7-6.1c0.4-2.1,0.4-49.4,0-51.5   C74.5,12.5,73.3,10.4,71.7,9.2z M60,28.4c-0.2,0.3-4.1,6.4-8.8,13.4c-5.9,8.8-8.7,12.9-9,13c-1.1,0.4-1.4,0-6.2-7.4l-4.7-7.1   l-4.4,6.7c-4.7,7.2-4.8,7.3-6,6.9c-0.7-0.2-1.2-1-1.4-2c-0.4-1.7-0.2-1.9,5.6-10.7l5.4-8.2h0.7c0.4,0,0.9,0.1,1.2,0.3   c0.2,0.2,2.4,3.4,4.9,7.2l4.5,6.8L49.4,36c4.2-6.3,7.8-11.7,8.1-11.9c0.8-0.6,1.8-0.3,2.4,0.7c0.4,0.7,0.5,1,0.5,2   C60.3,27.4,60.2,28.1,60,28.4z"
   id="path885"
   style="stroke:none;stroke-opacity:1" />
	<path
   class="st1"
   d="M74.8,4.8c-0.5-0.5-1.5-1.2-2.2-1.6l-1.3-0.7l-30.1,0c-26.2,0-30.3,0-31.2,0.3C6.2,3.9,3.2,8.5,2.4,14.1   c-0.3,2.4-0.3,51.4,0,53.8c0.7,5.1,3.5,9.5,7,11.1c0.9,0.4,2.3,0.4,31.2,0.4c28.9,0,30.3,0,31.3-0.4c3.3-1.4,5.9-5.4,6.9-10.4   c0.3-1.3,0.3-2.8,0.3-27.6s0-26.3-0.3-27.6C78.2,9.9,76.6,6.6,74.8,4.8z M75,66.7c-0.5,2.7-1.9,5.2-3.7,6.1   c-0.8,0.4-1.5,0.4-30.6,0.4H10.8l-0.9-0.5c-1.3-0.8-2.5-2.5-3.1-4.5l-0.5-1.6V40.9V15.1l0.4-1.3c0.7-2.4,2.2-4.4,3.8-5   c0.6-0.2,7.2-0.3,30.5-0.3l29.8,0l0.9,0.6c1.7,1.2,2.8,3.3,3.3,6C75.3,17.2,75.3,64.6,75,66.7z"
   id="path887"
   style="stroke:none;stroke-opacity:1;fill:#ffffff;fill-opacity:1" />
	<path
   class="st1"
   d="M57.4,24.1c-0.2,0.2-3.9,5.6-8.1,11.9l-7.6,11.5l-4.5-6.8c-2.5-3.8-4.7-7-4.9-7.2c-0.2-0.2-0.7-0.3-1.2-0.3   h-0.7L25,41.3c-5.8,8.8-5.9,9-5.6,10.7c0.2,1.1,0.8,1.8,1.4,2c1.2,0.4,1.3,0.3,6-6.9l4.4-6.7l4.7,7.1c4.9,7.4,5.2,7.8,6.2,7.4   c0.3-0.1,3.1-4.2,9-13c4.7-7.1,8.7-13.1,8.8-13.4c0.2-0.4,0.3-1,0.3-1.7c0-0.9-0.1-1.2-0.5-2C59.2,23.8,58.2,23.5,57.4,24.1z"
   id="path889"
   style="stroke:none;stroke-opacity:1;fill:#ffffff;fill-opacity:1" />
</g>
</svg>
