<?xml version="1.0" encoding="UTF-8" standalone="no"?>
<svg
   inkscape:version="1.1 (c4e8f9e, 2021-05-24)"
   sodipodi:docname="whitelogo.svg"
   id="svg913"
   preserveAspectRatio="xMidYMid meet"
   viewBox="0 0 860.58942 856.77209"
   height="856.77209pt"
   width="860.58942pt"
   version="1.0"
   xmlns:inkscape="http://www.inkscape.org/namespaces/inkscape"
   xmlns:sodipodi="http://sodipodi.sourceforge.net/DTD/sodipodi-0.dtd"
   xmlns="http://www.w3.org/2000/svg"
   xmlns:svg="http://www.w3.org/2000/svg"
   xmlns:rdf="http://www.w3.org/1999/02/22-rdf-syntax-ns#"
   xmlns:cc="http://creativecommons.org/ns#"
   xmlns:dc="http://purl.org/dc/elements/1.1/">
  <metadata
     id="metadata919">
    <rdf:RDF>
      <cc:Work
         rdf:about="">
        <dc:format>image/svg+xml</dc:format>
        <dc:type
           rdf:resource="http://purl.org/dc/dcmitype/StillImage" />
      </cc:Work>
    </rdf:RDF>
  </metadata>
  <defs
     id="defs917" />
  <sodipodi:namedview
     inkscape:current-layer="svg913"
     inkscape:window-maximized="1"
     inkscape:window-y="25"
     inkscape:window-x="0"
     inkscape:cy="573.06122"
     inkscape:cx="581.07606"
     inkscape:zoom="0.37430556"
     fit-margin-bottom="0"
     fit-margin-right="0"
     fit-margin-left="0"
     fit-margin-top="0"
     showgrid="false"
     id="namedview915"
     inkscape:window-height="939"
     inkscape:window-width="1680"
     inkscape:pageshadow="2"
     inkscape:pageopacity="0"
     guidetolerance="10"
     gridtolerance="10"
     objecttolerance="10"
     borderopacity="1"
     bordercolor="#666666"
     pagecolor="#ffffff"
     inkscape:pagecheckerboard="0"
     inkscape:document-units="pt" />
  <g
     style="fill:#fffffc;fill-opacity:1"
     id="g911"
     stroke="none"
     fill="#000000"
     transform="matrix(0.1,0,0,-0.1,-112.02274,960)">
    <path
       style="fill:#fffffc;fill-opacity:1"
       id="path877"
       d="m 1600,9593 c -24,-8 -449,-435 -465,-467 -23,-45 -19,-94 11,-133 38,-51 77,-67 143,-59 l 56,7 213,212 c 116,116 212,219 212,227 0,8 7,24 16,35 23,31 8,74 -49,133 -44,44 -57,52 -87,51 -19,0 -42,-3 -50,-6 z" />
    <path
       style="fill:#fffffc;fill-opacity:1"
       id="path879"
       d="m 9107,9552 c -46,-46 -47,-49 -47,-109 v -61 l 226,-221 225,-221 h 63 c 60,0 63,1 103,43 86,90 82,99 -201,385 l -231,232 h -45 c -41,0 -50,-5 -93,-48 z" />
    <path
       style="fill:#fffffc;fill-opacity:1"
       id="path881"
       d="m 1810,8905 -155,-155 85,-85 85,-85 157,157 158,158 -82,82 c -46,46 -85,83 -88,83 -3,0 -75,-70 -160,-155 z" />
    <path
       style="fill:#fffffc;fill-opacity:1"
       id="path883"
       d="m 8797,8972 -87,-87 155,-155 155,-155 90,90 90,90 -152,152 c -84,84 -155,153 -158,153 -3,0 -45,-39 -93,-88 z" />
    <path
       style="fill:#fffffc;fill-opacity:1"
       id="path885"
       d="m 2246,8463 -159,-155 84,-84 84,-84 158,158 157,157 -82,82 -83,82 z" />
    <path
       style="fill:#fffffc;fill-opacity:1"
       id="path887"
       d="m 8367,8537 -88,-83 152,-157 151,-157 95,87 94,87 -153,153 c -84,84 -155,153 -158,153 -3,-1 -45,-38 -93,-83 z" />
    <path
       style="fill:#fffffc;fill-opacity:1"
       id="path889"
       d="m 2685,8040 -160,-160 75,-75 76,-75 154,155 c 85,85 156,158 157,162 2,5 -30,41 -70,81 l -72,72 z" />
    <path
       style="fill:#fffffc;fill-opacity:1"
       id="path891"
       d="m 7934,8117 -79,-76 155,-156 155,-155 78,78 77,77 -154,154 -154,154 z" />
    <path
       style="fill:#fffffc;fill-opacity:1"
       id="path893"
       d="m 3682,8169 c -29,-5 -69,-20 -90,-33 -45,-29 -828,-806 -936,-930 -43,-49 -82,-100 -88,-115 -6,-14 -16,-37 -22,-50 -6,-13 -11,-71 -11,-128 1,-84 4,-106 18,-120 16,-17 39,4 435,397 229,228 535,531 680,675 232,231 260,261 245,273 -42,31 -150,46 -231,31 z" />
    <path
       style="fill:#fffffc;fill-opacity:1"
       id="path895"
       d="m 6923,8164 c -18,-9 -33,-20 -33,-24 0,-9 1376,-1373 1389,-1378 16,-5 34,129 28,204 -12,141 -4,130 -527,658 -451,454 -475,477 -548,512 -70,34 -85,38 -177,41 -79,3 -107,0 -132,-13 z" />
    <path
       style="fill:#fffffc;fill-opacity:1"
       id="path897"
       d="m 3775,7430 -130,-130 225,-226 c 124,-124 296,-293 383,-376 l 158,-151 67,22 c 66,23 269,119 277,131 2,3 -188,198 -423,433 l -427,427 z" />
    <path
       style="fill:#fffffc;fill-opacity:1"
       id="path899"
       d="m 6526,7127 c -344,-339 -426,-425 -415,-433 21,-17 295,-164 305,-164 5,0 185,175 399,390 l 390,390 -120,120 c -66,66 -122,120 -125,120 -3,-1 -198,-191 -434,-423 z" />
    <path
       style="fill:#fffffc;fill-opacity:1"
       id="path901"
       d="m 7121,6726 -334,-334 59,-17 c 59,-18 120,-32 268,-62 l 78,-16 257,257 256,256 -125,125 -125,125 z" />
    <path
       style="fill:#fffffc;fill-opacity:1"
       id="path903"
       d="m 3272,6927 -122,-122 249,-249 249,-249 73,12 c 41,7 101,17 134,22 33,5 76,15 95,23 19,7 52,16 73,20 20,4 37,11 37,15 0,8 -645,643 -659,649 -3,1 -61,-53 -129,-121 z" />
    <path
       style="fill:#fffffc;fill-opacity:1"
       id="path905"
       d="m 5335,6686 c -39,-30 -93,-74 -122,-97 -47,-38 -117,-83 -168,-108 -11,-5 -58,-34 -104,-65 -47,-31 -89,-56 -94,-56 -5,0 -30,-15 -56,-34 -96,-69 -471,-237 -586,-261 -44,-10 -114,-30 -156,-45 -42,-15 -101,-31 -130,-35 -30,-4 -79,-13 -109,-21 -51,-14 -186,-28 -375,-41 -44,-3 -134,-10 -200,-17 l -120,-12 -3,-1019 c -3,-992 1,-1159 29,-1305 20,-105 62,-275 74,-300 7,-14 16,-43 19,-65 8,-45 39,-142 54,-171 5,-10 14,-30 20,-44 36,-91 98,-217 118,-240 21,-25 85,-123 101,-155 55,-107 358,-443 518,-573 38,-31 96,-82 130,-113 54,-51 93,-81 205,-157 19,-13 37,-26 40,-30 3,-4 12,-11 21,-17 38,-24 129,-88 181,-127 31,-24 113,-83 182,-133 69,-49 158,-114 198,-143 40,-29 87,-60 103,-69 17,-9 56,-36 87,-60 90,-69 189,-133 216,-140 27,-6 96,26 161,76 19,14 89,68 155,119 67,51 173,130 237,176 63,47 121,92 128,100 8,9 18,16 23,16 6,0 32,19 60,41 27,23 62,51 78,63 53,39 145,110 195,152 28,23 66,52 86,65 45,30 186,140 251,196 27,24 53,43 58,43 13,0 254,244 327,331 69,81 96,119 143,194 17,28 49,79 70,114 22,34 40,66 40,70 0,5 11,28 25,52 14,24 27,51 31,59 3,8 10,23 15,34 27,48 107,289 139,416 6,25 19,77 29,115 22,86 37,230 51,480 14,249 14,1932 0,1940 -5,3 -85,8 -177,11 -209,6 -309,22 -638,101 -173,42 -274,75 -420,138 -16,7 -50,21 -75,30 -25,9 -53,21 -62,26 -10,5 -26,9 -37,9 -10,0 -24,7 -31,15 -7,8 -16,15 -21,15 -9,0 -112,45 -139,60 -8,5 -42,22 -75,39 -33,17 -78,42 -100,55 -22,14 -56,34 -75,44 -131,71 -188,108 -255,163 -95,80 -185,149 -194,149 -4,0 -38,-24 -76,-54 z" />
    <path
       style="fill:#fffffc;fill-opacity:1"
       id="path907"
       d="m 8020,3385 c -13,-39 -43,-115 -68,-170 -75,-169 -120,-98 386,-609 469,-474 447,-447 459,-563 5,-50 3,-53 -37,-97 l -43,-46 h -70 -71 l -360,363 c -199,199 -382,387 -407,417 l -46,54 -37,-64 c -21,-35 -44,-84 -53,-109 -8,-25 -21,-53 -28,-61 -7,-8 -25,-37 -40,-63 l -28,-49 344,-345 c 189,-189 446,-443 571,-564 l 226,-219 h 350 c 327,0 350,1 366,19 15,16 16,51 13,362 -2,189 -7,358 -11,374 -6,21 -206,229 -690,715 -374,377 -686,694 -692,705 -9,17 -14,11 -34,-50 z" />
    <path
       style="fill:#fffffc;fill-opacity:1"
       id="path909"
       d="m 2112,2717 c -480,-481 -692,-700 -692,-715 0,-11 -4,-24 -10,-27 -15,-10 -13,-688 2,-703 15,-15 703,-17 713,-3 3,5 20,13 38,16 25,6 142,117 560,533 290,290 527,530 527,535 0,4 -24,45 -54,90 -30,45 -74,126 -97,180 l -42,99 -14,-34 c -15,-37 -720,-750 -765,-774 -16,-8 -55,-14 -97,-14 h -70 l -35,44 c -33,39 -36,49 -36,105 0,35 6,74 14,89 8,15 204,216 436,447 232,231 426,430 431,443 5,14 5,39 -2,65 -6,23 -13,53 -16,67 -8,39 -87,250 -93,250 -3,0 -317,-312 -698,-693 z" />
  </g>
</svg>
