<?xml version="1.0" encoding="utf-8"?>
<!-- Generator: Adobe Illustrator 21.1.0, SVG Export Plug-In . SVG Version: 6.00 Build 0)  -->
<svg version="1.1" id="Layer_1" xmlns="http://www.w3.org/2000/svg" xmlns:xlink="http://www.w3.org/1999/xlink" x="0px" y="0px"
	 viewBox="0 0 82 87.5" style="enable-background:new 0 0 82 87.5;" xml:space="preserve">
<style type="text/css">
	.st0{fill:#FFFFFF;stroke:#FFFFFF;stroke-miterlimit:10;}
	.st1{fill:#CD1D25;}
	.st2{fill:#960000;}
	.st3{fill:#FFFFFF;stroke:#000000;stroke-miterlimit:10;}
	.st4{stroke:#000000;stroke-miterlimit:10;}
</style>
<rect x="-5" y="-4" class="st0" width="93" height="93"/>
<g>
	<g>
		<polygon class="st1" points="12.7,65.7 5.6,12.7 76,13.1 67.3,65.7 		"/>
		<path d="M6.1,13.2l69.3,0.3l-2.3,13.6l-6.3,38H13.1l-2.9-21.5L6.1,13.2 M5,12.2c2.4,18,4.8,36,7.3,53.9c18.5,0,37,0,55.5,0
			c3-17.9,5.9-35.7,8.9-53.6C52.7,12.5,28.9,12.3,5,12.2L5,12.2z"/>
	</g>
	<g>
		<path class="st1" d="M15.7,81.2c-0.1-0.4-0.4-0.9-0.7-1.2v-0.4c0-0.4-0.1-0.8-0.4-1.1v-0.3c0-0.4-0.1-0.7-0.3-1l-1.5-11.4L67.3,66
			l-2.5,12.7c-0.1,0.2-0.1,0.4-0.1,0.7c-0.1,0.3-0.3,0.6-0.4,0.9L15.7,81.2z"/>
		<path d="M13.3,66.3l53.3,0.2l-1.1,5.7l-1.3,6.3c-0.1,0.2-0.1,0.5-0.2,0.7c-0.1,0.2-0.1,0.3-0.2,0.5l-18,0.4L16,80.7
			c-0.1-0.3-0.3-0.6-0.6-0.9v-0.2c0-0.4-0.1-0.9-0.4-1.3c0-0.1,0-0.1,0-0.2c0-0.4-0.1-0.8-0.3-1.2l-1.2-8.6L13.3,66.3 M12.1,65.3
			c0.5,4,1.1,8,1.6,12.1c0.2,0.2,0.3,0.5,0.3,0.9c0,0.2,0,0.3,0,0.5c0.2,0.3,0.4,0.6,0.4,0.9v0.7h0.1c0.4,0.3,0.7,0.8,0.7,1.3v0.1
			c16.4-0.3,32.9-0.7,49.3-1c0.1-0.4,0.3-0.8,0.5-1.2c0-0.2,0.1-0.5,0.1-0.7c0.9-4.4,1.7-8.9,2.6-13.3
			C49.2,65.4,30.7,65.3,12.1,65.3L12.1,65.3z"/>
	</g>
	<g>
		<path class="st1" d="M16.2,85l-0.8-3.1c0-0.1,0-0.2,0-0.3v-0.3c0-0.4-0.2-0.9-0.5-1.3l0,0h49.4c-0.4,1.1-0.7,2.2-0.7,3.4l0,0
			l-0.5,1.7L16.2,85L16.2,85z"/>
		<path d="M63.6,80.5c-0.3,0.9-0.4,1.8-0.5,2.8l-0.4,1.2H16.6l-0.2-1L16,81.8c0-0.1,0-0.2,0-0.3v-0.3c0-0.3-0.1-0.5-0.1-0.8h47.7
			 M65,79.5H14.3c0.1,0.3,0.1,0.5,0.2,0.8c0.3,0.3,0.5,0.7,0.5,1v0.3c0,0.1,0,0.2,0,0.3c0.3,1.2,0.6,2.4,0.9,3.6h47.6
			c0.2-0.7,0.5-1.4,0.7-2.1c0,0,0,0,0-0.1C64.1,82,64.4,80.7,65,79.5L65,79.5L65,79.5z"/>
	</g>
	<g>
		<rect x="12.6" y="65.8" class="st1" width="54.4" height="0.8"/>
		<polygon class="st2" points="67.5,65.3 12.1,65.3 12.1,67 67.5,67 		"/>
	</g>
	<g>
		<rect x="15.6" y="79.6" class="st1" width="48" height="0.8"/>
		<path class="st2" d="M64.1,79.1h-49v1.8h49c0-0.1,0.1-0.2,0.1-0.3L64.1,79.1L64.1,79.1z"/>
	</g>
	<g>
		<rect x="7.7" y="22.1" class="st1" width="66.2" height="3.6"/>
		<path class="st2" d="M73.4,22.6v2.6H8.2v-2.6H73.4 M74.4,21.6H7.2v4.6h67.2L74.4,21.6L74.4,21.6z"/>
	</g>
	<g>
		<rect x="6.2" y="17.5" class="st1" width="68.6" height="0.8"/>
		<polygon class="st2" points="75.4,17 5.7,17 5.7,18.8 75.4,18.8 		"/>
	</g>
	<g>
		<path class="st3" d="M4.4,12.8c-0.9,0-1.6-1.9-1.6-4S3.5,5,4.4,5h72.7c0.9,0,1.6,1.7,1.6,3.8s-0.7,3.8-1.6,3.8H4.4V12.8z"/>
		<path class="st4" d="M77.2,6.2c0.6,0,1.1,1.2,1.1,2.6s-0.5,2.6-1.1,2.6H4.4c-0.6,0.2-1.1-1-1.1-2.6c0-1.4,0.5-2.6,1.1-2.6
			L77.2,6.2 M77.2,3.8H4.4c-1.1,0-2.1,2.4-2.1,5c0,2.9,1,5,2.1,5h72.7c1.2,0,2.1-2.4,2.1-5C79.3,6.2,78.3,3.8,77.2,3.8L77.2,3.8z"/>
	</g>
</g>
</svg>
