<?xml version="1.0" encoding="utf-8"?>
<!-- Generator: Adobe Illustrator 21.1.0, SVG Export Plug-In . SVG Version: 6.00 Build 0)  -->
<svg version="1.1" id="Layer_1" xmlns="http://www.w3.org/2000/svg" xmlns:xlink="http://www.w3.org/1999/xlink" x="0px" y="0px"
	 viewBox="0 0 71 182" style="enable-background:new 0 0 71 182;" xml:space="preserve">
<style type="text/css">
	.st0{fill:#10466C;stroke:#FFFFFF;stroke-miterlimit:10;}
</style>
<g>
	<g>
		<path class="st0" d="M56.9,86.3c-0.2,0.7-0.4,1.3-0.6,2c0.3-0.2,0.6-0.4,0.8-0.6C56.9,87.3,56.8,86.8,56.9,86.3z"/>
		<path class="st0" d="M56.9,86.3c-0.2,0.7-0.4,1.3-0.6,2c0.3-0.2,0.6-0.4,0.8-0.6C56.9,87.3,56.8,86.8,56.9,86.3L56.9,86.3z"/>
	</g>
	<g>
		<path class="st0" d="M33.9,181.5c-6.1,0-11.1-4.2-11.1-9.3v-63.9c0-0.5,0-1,0.1-1.4v-0.2L10.1,87.9h50.7l-13,19v0.2
			c0.1,0.4,0.1,0.7,0.1,1.2v63.9c0,5.1-5,9.3-11.1,9.3H33.9z"/>
		<path class="st0" d="M59.9,88.4l-12.4,18l-0.2,0.3l0.1,0.4c0.1,0.3,0.1,0.7,0.1,1.1v63.9c0,4.9-4.8,8.8-10.6,8.8H34
			c-5.9,0-10.6-4-10.6-8.8v-63.9c0-0.5,0-0.9,0.1-1.3l0.1-0.4l-0.2-0.3L11.1,88.4H59.9 M61.8,87.4H9.2l13.2,19.3
			c-0.1,0.5-0.1,1-0.1,1.5v63.9c0,5.4,5.2,9.8,11.6,9.8h2.9c6.4,0,11.6-4.4,11.6-9.8v-63.9c0-0.4,0-0.9-0.1-1.3L61.8,87.4L61.8,87.4
			z"/>
	</g>
	<path class="st0" d="M63.2,41.5c-1.6-6.6-3.6-13-6.1-19.2c-0.2-0.5-0.5-0.9-0.9-1.2c-1.2,2-2.8,3.7-5,3.8c-2.6,0.1-4.5-2.1-5.8-4.5
		C43.3,16.4,42,11,41.6,6c-0.7-0.1-1.4,0-2.1,0.4c-7.7,4.3-16.7,7.8-23,14.6c-3.1,3.3-5.6,7.5-8,11.4c-0.9,1.4-1.8,2.9-2.6,4.4
		c-0.3,1-0.6,1.9-0.9,2.9c-0.3,1.6-0.7,3.2-1,4.8C4.7,51.3,6.6,58,9.3,63.8C9.8,64.9,10.4,66,11,67c4.3,3.9,8.6,7.6,13,11.4
		c0.4,0.1,0.9,0.2,1.3,0.2c0.1-3.9-1.2-7.5-2.5-11.4c-1.3-4.1-1.6-8.3-0.8-12.6c0.9-4.1,2.6-8,5.1-11.1c1.3-1.6,4.6-4.9,7-5.7
		c0.2,1.5,0,3.3,0,4.4c0,2.4-0.1,4.7,0.1,7.1c0.4,4.3,1.4,8.2,4.1,11.3c1.8,2.2,4.6,0.9,5.4-1.7c0.2-0.7,0.5-1.7,0.7-2.8
		c0.4,0.7,0.7,1.5,1.1,2.2c1.1,2.3,2.3,4.5,3.4,6.8c1,2.1,2.1,4.2,1.6,6.7c-0.4,2.5-1.9,4.8-3.1,6.9c-0.2,0.4-0.4,0.8-0.5,1.3
		c3.9-1.1,7.6-3.2,10.8-6.6c3.3-3.5,6-7.8,8.3-12.3c0-0.1,0-0.2,0-0.3C66.2,54.3,64.8,47.8,63.2,41.5z"/>
</g>
</svg>
