<?xml version="1.0" encoding="utf-8"?>
<!-- Generator: Adobe Illustrator 21.1.0, SVG Export Plug-In . SVG Version: 6.00 Build 0)  -->
<svg version="1.1" id="Layer_1" xmlns="http://www.w3.org/2000/svg" xmlns:xlink="http://www.w3.org/1999/xlink" x="0px" y="0px"
	 viewBox="0 0 103 77" style="enable-background:new 0 0 103 77;" xml:space="preserve">
<style type="text/css">
	.st0{fill:#10466C;stroke:#FFFFFF;stroke-miterlimit:10;}
</style>
<g>
	<path class="st0" d="M90.9,50.2H94c0.8,0,1.5-0.7,1.5-1.5V35.1c0-0.8-0.7-1.5-1.5-1.5h-3.1c-0.8,0-1.5,0.7-1.5,1.5v13.6
		C89.4,49.5,90.1,50.2,90.9,50.2z"/>
	<g>
		<path class="st0" d="M83,58.5C81.9,60.4,72.4,75.4,54.5,77C41.1,78.2,27.9,71.5,20,59.4c0.1-12,0.1-23.9,0.2-35.9h62.6
			C82.9,35.2,82.9,46.8,83,58.5z"/>
		<g>
			<polygon class="st0" points="0.9,34 50.5,0.6 102.1,29.9 53.5,61.4 			"/>
			<path class="st0" d="M50.5,1.2l15.3,8.7L101.2,30L60.4,56.3l-6.9,4.5L1.9,34l9-6.1L50.5,1.2 M50.5,0
				C33.6,11.4,16.8,22.7-0.1,34.1C17.8,43.4,35.6,52.7,53.5,62C70,51.3,86.6,40.6,103.1,29.9C85.6,19.9,68,10,50.5,0L50.5,0z"/>
		</g>
	</g>
	<path class="st0" d="M97,64c-2.8-0.3-5.7-0.7-8.5-1c0.7-7.2,1.4-14.3,2.1-21.5h4.8C95.9,49,96.5,56.5,97,64z"/>
</g>
</svg>
